<?xml version="1.0" standalone="no"?>
<!DOCTYPE svg PUBLIC "-//W3C//DTD SVG 1.1//EN" "http://www.w3.org/Graphics/SVG/1.1/DTD/svg11.dtd" >
<svg xmlns="http://www.w3.org/2000/svg" xmlns:xlink="http://www.w3.org/1999/xlink" version="1.1">
<metadata></metadata>
<defs>
<font id="trushdexregular" horiz-adv-x="976" >
<font-face units-per-em="2048" ascent="1638" descent="-410" />
<missing-glyph horiz-adv-x="729" />
<glyph horiz-adv-x="0" />
<glyph horiz-adv-x="682" />
<glyph horiz-adv-x="0" />
<glyph horiz-adv-x="0" />
<glyph unicode="&#xd;" horiz-adv-x="729" />
<glyph unicode=" "  horiz-adv-x="729" />
<glyph unicode="&#x09;" horiz-adv-x="729" />
<glyph unicode="&#xa0;" horiz-adv-x="729" />
<glyph unicode="!" horiz-adv-x="706" d="M-6 20q0 106 59 179q19 24 37.5 27.5t44.5 -11.5q41 -25 74 -25q12 -1 22 -4t21.5 -11.5t18 -14t20.5 -19.5l20 -20q-4 -9 -49 -96q-1 -2 -55 -95q-12 -24 -26.5 -29.5t-37.5 5.5q-5 2 -10.5 5.5t-12.5 8.5t-11 8q-17 17 -41 11q-41 -9 -60 34q-10 20 -14 47zM166 326 q1 8 3.5 33t4 35t5 31t6.5 34.5t8 32t12 34.5q22 58 59 161.5t69 190t62 162.5q78 203 207 412q51 76 84 115q22 29 38 34t50 -8q77 -33 127 -77q-115 -256 -283 -615q-58 -132 -90 -196q-3 -6 -14 -25t-20 -37q12 55 14 72q0 1 -0.5 2t-1.5 4l-2 6q-5 -6 -12 -12.5t-9 -9.5 q-7 -14 -26.5 -50t-28.5 -57l-8 -16t-9 -17.5t-9 -14.5t-13 -15.5t-16 -12.5q-7 -4 -12 -9.5t-10.5 -15.5t-8 -15t-8 -19t-6.5 -17q-28 -78 -56 -110q-10 -8 -18 -37q-15 -34 -45 -31q-21 3 -33.5 19t-9.5 39z" />
<glyph unicode="&#x22;" horiz-adv-x="854" d="M233 1022q73 99 109 227q11 43 27 121q8 34 21.5 41.5t45.5 -4.5q45 -15 58 -34.5t6 -63.5q-26 -154 -103 -275q-33 -52 -68.5 -54.5t-95.5 42.5zM481 1022q73 99 109 227q6 23 26 121q7 34 21.5 41.5t46.5 -4.5q45 -15 58 -34.5t6 -63.5q-26 -154 -103 -275 q-33 -52 -68.5 -54.5t-95.5 42.5z" />
<glyph unicode="#" horiz-adv-x="1325" d="M23 694q7 5 16 9.5l16 8t18.5 6.5t17.5 4.5t19 3.5t17.5 2.5t19 2.5t17.5 2q49 3 74.5 26t31.5 70q-11 7 -26.5 9.5t-28 1.5t-27.5 0q-91 9 -151 69q-27 35 0 64q28 2 80 6.5t94.5 7.5t79.5 4q72 3 106 66q12 24 36 67.5t36 67.5q58 108 149 213q8 9 27 23t25 20 q37 -31 73 -53q2 -6 3 -12.5t1 -11t-1.5 -10.5t-2.5 -9t-4 -9t-4 -7.5l-5 -7.5t-5 -7q-23 -45 -125 -240q-2 -6 -8 -25.5t-12 -33.5q99 -3 157 6q50 5 74 66q52 133 127 262q40 67 78 92q69 -12 108 -74q-20 -63 -74 -172.5t-73 -157.5q7 -1 30 -3t31 -3.5t27 -4.5t28.5 -7 t24 -10.5t25 -15.5t20.5 -21q2 -2 12 -13t13 -15.5t9.5 -14t8.5 -19.5t2 -22q-44 -2 -131 -5t-131 -5q-45 -3 -61 -21t-25 -76q4 0 103 -6q137 -3 188 -127q-32 -7 -35 -6q-71 9 -111.5 7.5t-109.5 -7t-109 -4.5q-53 -69 -181 -381t-156 -436q-51 -9 -73.5 6t-23.5 60 q0 28 6 55q17 50 47.5 150.5t47.5 150.5q31 90 36 129q-24 -24 -39 -56t-28.5 -73t-24.5 -62q-10 -23 -27 -64.5t-32.5 -75t-32.5 -62.5q5 31 10 41q53 184 189 508q2 4 8 16.5t8 17.5t5 19.5t-1 23.5q-25 3 -51 0.5t-63.5 -9.5t-53.5 -9q-102 -192 -174 -383q-29 -17 -73 0 q-13 7 -35 22t-29 19q3 32 10 64t19.5 66.5t21 56.5t26.5 62.5t25 55.5q-14 10 -49 32.5t-53 35.5q-39 31 -22 69zM455 766q30 4 81.5 7.5t57.5 4.5q54 6 51 70q-30 4 -40.5 4.5t-39.5 -2.5t-39 -4q-34 -2 -52 -20t-19 -60z" />
<glyph unicode="$" horiz-adv-x="1155" d="M-10.5 210q6.5 35 35.5 48q22 8 61 24.5t55 22.5q10 6 32.5 13t29.5 10q26 21 26 30q1 27 26.5 71t29.5 63q7 28 47 141q0 16 10 41q-43 4 -102 8q-104 3 -189 84q-20 24 -18 41q6 56 -13 104q-3 7 4.5 24t16.5 26q18 19 96 83q147 106 355 203q84 38 108 105 q11 30 55 84q10 12 19 28t14 28t13 33t12 31q19 51 49 41q26 -6 12 -53q-6 -22 -21.5 -69t-21.5 -72q-2 -7 -2 -47q90 23 131 41q11 4 24 18.5t19 28.5q58 109 96 196q3 7 11.5 21t11.5 20q2 0 19.5 -2t25.5 -4q27 -9 33 -21.5t-2 -41.5q-5 -18 -19.5 -58t-19.5 -61 q-3 -8 -5.5 -17.5t-6 -21t-5.5 -18.5q8 -2 22.5 -8t22.5 -7q57 -8 97 -65q12 -18 47 -53q46 -49 31 -121q-11 -33 -31 -53.5t-43 -20.5q-24 0 -43 22t-21 50q0 5 2.5 17.5t3.5 19.5h-61q-10 -1 -30 -8.5t-25 -8.5q-79 -14 -105 -96q-15 -46 -48 -127.5t-44 -112.5 q-18 -62 -24 -76q12 -10 33.5 -27t36.5 -30t28 -26q69 -62 90 -134q22 -57 -20 -104q-44 -64 -107 -96q-54 -29 -186 -92q-5 -2 -25.5 -10.5t-32.5 -14.5q-18 -41 -31.5 -86t-27.5 -107t-21 -88q-5 -2 -12 -7.5t-10 -6.5q-71 -14 -90 4.5t-4 85.5q15 71 30 144 q-13 3 -25.5 3.5t-26 -2.5t-21.5 -6t-23.5 -9.5t-21.5 -8.5q-28 -11 -37 -55q-32 -110 -72 -236q-12 -40 -43 -56t-68 1q-18 11 -14 39q6 33 35 160q3 14 11.5 39.5t11.5 37.5q-9 1 -30 2.5t-34.5 4t-24.5 6.5q-9 4 -18 11t-20.5 18t-18.5 16q-21 17 -14.5 52zM53 918 q0 -1 3 -7t3 -10q98 63 127 80q-76 -2 -133 -63zM264 809q8 -3 16 -5t18 -2.5t16 -0.5t18.5 1t16 1.5t18.5 3t18 2.5q-50 44 -121 0zM338 856q51 -8 62.5 -0.5t15.5 53.5q-37 -12 -46.5 -18.5t-31.5 -34.5zM401 410q39 -2 55 4.5t54 36.5q-47 -3 -65 -9.5t-44 -31.5z M424 485q37 10 53 14t35.5 14t25 14.5t15.5 22t13.5 30t13.5 45.5q2 5 4 15t4 15q-36 27 -101 17q-48 -81 -63 -187zM545 850q37 -15 50 -16.5t54 4.5q31 56 57.5 131t26.5 108q-94 -31 -116.5 -52t-51.5 -107q-6 -32 -20 -68z" />
<glyph unicode="%" horiz-adv-x="1404" d="M57 918q-4 219 66 362q42 79 94 131q32 28 51 53q16 26 64 43q29 5 35.5 4t31.5 -10q8 -4 47 -4q235 -10 246 -223q9 1 15.5 4.5t9.5 7t7.5 10t6.5 9.5q15 21 65 91.5t78 108.5q11 15 32.5 38.5t29.5 33.5q17 19 53 16q44 -6 72 -28q25 -22 74 -58q-5 -10 -56 -92 q-326 -443 -694 -1171q-89 -166 -143 -330q-9 -26 -21.5 -32.5t-40.5 -0.5q-6 0 -26 8q-20 6 -27 15.5t-4 27.5q1 12 7.5 38t8.5 38q-2 2 -10 17q-53 27 -25 86q30 68 88.5 196t69.5 152q17 37 57 120t60 128q7 10 14 30q-5 -1 -27.5 -4.5t-31.5 -5.5q-83 -4 -113 45 q-21 38 -65 31q-46 -7 -68 35q-2 6 -11.5 24.5t-14 31t-5.5 24.5zM190 1034q-9 -25 9 -57q5 12 12 28.5t10 24.5q5 14 19 64t26 77q55 126 119 185q-1 -3 -3.5 -15.5t-6.5 -17.5q-86 -169 -111 -270q-20 -92 -12 -142q0 -4 12 -24q4 2 11.5 4t11.5 4q115 91 172 211 q14 20 10 57q-2 60 -53 172q-5 7 -29 19q15 30 -22 41q-4 -4 -14 -15t-15 -16q-14 -17 -46.5 -73.5t-60.5 -82.5v-16l1 -12q2 -11 -1 -11q-14 -19 -21 -39t-11.5 -53t-6.5 -43zM548 1228.5q2 -21.5 19 -65.5q15 12 19.5 26t1.5 40q-7 33 -33 65q-9 -44 -7 -65.5zM569 264 q-3 96 27 185q37 94 66 151q4 10 13.5 29.5t14.5 31t10.5 28.5t8.5 32q7 38 53 80q123 111 282 53q11 -3 30 -10.5t26 -9.5q83 -39 92 -127q9 -107 -37 -201q-77 -169 -252 -324q-86 -80 -209 -49q-59 14 -90 45t-35 86zM745 240q3 2 43 26q138 122 197 256q26 72 35 121 q12 50 -2 102q-5 -2 -11.5 -6t-11 -6.5t-10 -4.5t-10.5 -3q-16 -2 -43 -2q-77 -93 -134 -240t-53 -243z" />
<glyph unicode="&#x26;" horiz-adv-x="1705" d="M-55 270q26 47 49 76q39 50 93.5 102t95 84.5t108.5 85.5q35 27 100 62q4 3 7 7t7 10t7 10q-13 2 -31.5 3.5t-22.5 2.5q-96 16 -176 96q-64 61 -26 145q26 60 92 113q102 89 225 156q31 15 55 37q-26 0 -48.5 -8.5t-55 -28.5t-43.5 -25q-27 -13 -79.5 -40.5t-72.5 -37.5 q13 20 23 27q291 266 698 348q89 18 183 12q149 -15 213 -104q8 -12 43 -33q6 9 18.5 25t17.5 24q102 145 183 221q32 32 55 46q34 13 49 -15q-2 -19 -27 -39.5t-30 -34.5q11 -14 22 2q14 18 47.5 21.5t42.5 7.5q11 0 19 -8q40 -35 51 -59q-10 -14 -33 -37 q-31 -32 -93.5 -95t-92.5 -94q-125 -115 -188 -223q-22 -11 -58 4.5t-55 11.5q0 -31 -4 -47q-5 -20 -13 -24q-3 -1 -5.5 -1.5t-4.5 0t-3.5 1t-3.5 2.5l-3 3t-2.5 4t-1.5 4t-2 4.5t-2 4.5q-14 32 -2 62q18 37 33 78q11 28 12 39t-2 51q-31 14 -101 10q-129 0 -272 -47 q-291 -98 -506 -258q-46 -36 -106 -96q-45 -32 -45 -80q3 -2 10.5 -6.5t13 -6.5t10.5 -2q75 -4 113 0q114 8 336 58q14 3 38.5 10t44.5 11t38 3q41 0 61 -22q41 -41 51 -84q-11 -10 -23 -15t-31 -8t-23 -4t-35.5 -9t-48.5 -15q-301 -139 -525 -328q-108 -90 -166 -178 q-2 -3 -9 -12t-9 -12t-7 -13.5t-4 -16.5t1 -20q52 4 149 37q41 14 87 31t78.5 30t88 37t77 33.5t86.5 38.5t79 35q224 98 276 122q4 0 19 15q-15 6 -22.5 4.5t-19.5 -7.5t-18 -7q-9 -1 -26.5 -4.5t-26.5 -4.5q-8 -4 -78 -18q29 25 56 45q-43 43 -70 68q5 2 12 6t11 6t8 2 q381 58 569 70q20 4 42 0.5t34 -19.5q2 -11 -3 -17.5t-10 -8.5t-16 -5q-55 -9 -108 -18q-4 -1 -13 -4.5t-14 -5.5q42 -9 117.5 4t115.5 4q-32 -13 -101 -21.5t-101 -23.5q-1 -23 18 -57t23 -48q-2 -2 -11 -11.5t-16 -12.5q-81 -42 -160 -135q-192 -205 -321 -428 q-37 -72 -51 -109q-6 -15 -11 -45.5t-6 -34.5q-1 -7 -12 -28h-19q-26 8 -42 15.5t-29.5 19.5t-19.5 28t-6 39t7 55q5 24 39 103q53 115 164 268q26 33 39 57q-8 4 -16 4t-12 -1t-12 -5.5t-9 -5.5q-12 -5 -135.5 -58t-186.5 -79q-161 -70 -325 -103q-166 -34 -310 93 q-74 68 -32 157zM868 664q0 8 3 13.5t5 6.5t10 4l9 2q173 55 403 72q5 1 28.5 3.5t32 3t28.5 1.5t32 0.5t28.5 -2.5t31.5 -6q-185 -38 -611 -98zM870 1397q24 3 58.5 8t44.5 6q17 3 49.5 8t48.5 8q7 1 26.5 1t32 4t23.5 16q-4 0 -11.5 0.5t-13.5 0.5t-10 -1q-5 -1 -16 -3.5 t-16.5 -3t-16.5 0.5t-22.5 1h-20.5t-22.5 -2t-20 -3t-22.5 -4.5t-20 -4t-22.5 -5t-21.5 -5.5q-2 -1 -5 -3.5t-9 -8t-13 -10.5z" />
<glyph unicode="'" horiz-adv-x="616" d="M233 1022q73 99 109 227q11 43 27 121q8 34 21.5 41.5t45.5 -4.5q45 -15 58 -34.5t6 -63.5q-26 -154 -103 -275q-33 -52 -68.5 -54.5t-95.5 42.5z" />
<glyph unicode="(" horiz-adv-x="778" d="M-12 463q43 254 186 498q74 116 186 231q2 2 7.5 6t7.5 6q20 23 74.5 86t85.5 96q115 133 262 240q53 30 90 45q62 23 131 -6q93 -49 153 -109q23 -23 20 -43t-30 -26q-11 -4 -14 -2q-11 4 -22.5 4t-19 -1t-19 -7t-16.5 -9.5t-17.5 -13t-16.5 -12.5q-77 -58 -119.5 -90.5 t-105 -87t-109.5 -103.5q-184 -192 -262 -379q-11 -25 -86 -211q-63 -155 -63 -309q0 -285 143 -471l8 -16q-1 -1 -21 -20t-34 -29q-14 6 -31 17.5t-26 19.5t-30 27t-26 24q-63 51 -88 90q-12 22 -51 53q-112 78 -143 242q-24 121 -4 260zM27 217q1 -16 5.5 -31.5t14.5 -40 t12 -30.5q0 -1 2.5 -6t3.5 -6t4 -5.5t5.5 -3.5t7.5 0q-2 12 -10 51t-12 65t-5 50q-3 24 -8 156q-33 -105 -20 -199zM211 154q-17 -68 20 -144q9 74 -20 144z" />
<glyph unicode=")" horiz-adv-x="962" d="M-307 -164q7 0 32 -3t39 -1q34 0 60 16q29 12 61 33q84 54 176 164q195 235 334 590q116 289 148 571q3 25 8 154q0 67 -25 108q-17 -8 -39 -12q-8 -4 -36 -22q10 30 24 39q5 5 17.5 14t17.5 14q-6 39 -37 25q-13 -6 -37.5 -20t-34.5 -19q-4 22 14 35.5t19 23.5 q-29 8 -52 -2.5t-132 -77.5q-16 1 -24 9t-15 26.5t-10 24.5q80 95 151 123q56 26 111 2q183 -64 293 -185q69 -75 88 -178q33 -143 6 -311q-122 -622 -453 -1028q-104 -131 -207 -187q-61 -34 -122 -57q-84 -39 -181 -10q-13 9 -53 14q-72 18 -108 51q-41 31 -33 76z M-225 -207q3 -1 12.5 -5.5t15.5 -4.5q85 7 125 65q-94 -32 -153 -55zM147 -152q16 5 31 15.5t23.5 19.5t24.5 27t22 24q127 130 194 314q24 68 74.5 189t63.5 155q20 42 38 104q-1 1 -5 3t-5 3q-11 -16 -12 -22q-84 -152 -164 -344q-97 -246 -276 -459q-21 -11 -9 -29z M618 911q3 4 10.5 16.5t10 17t8.5 15t8 16.5t5 14.5t3.5 16.5t0.5 17q0 20 -23 20q0 -2 -12.5 -50t-10.5 -83zM670 1448q5 -59 16 -78q10 -19 31 -33q2 41 -21 86q-1 4 -4.5 7t-10 8t-11.5 10zM678 1102q53 88 10 192q-18 -59 -10 -192z" />
<glyph unicode="*" horiz-adv-x="872" d="M115 1081q24 35 60.5 60t89.5 50.5t79 41.5q-8 39 -44 106t-44 101q18 26 51 8q21 -21 31 -21q16 0 31 -6t23.5 -12t24 -20t21.5 -19h11q9 6 14 16t9.5 28t6.5 22q9 22 29.5 62t23.5 46q23 46 89 35q8 -2 17 -5t19.5 -7t16.5 -6q2 -35 -18 -93t-21 -90q11 2 87.5 25.5 t96.5 21.5q14 -1 18.5 -11t3.5 -22t3 -28t16 -27q-35 -26 -45 -30q-17 -7 -80.5 -30.5t-97.5 -37.5q-21 -7 -51 -22q-26 -15 -30.5 -30.5t7.5 -41.5q0 -1 55 -107q8 -13 41 -73q-40 -28 -71 6q-32 48 -39 57q-4 4 -9 9.5t-12.5 12.5t-11.5 11q-13 -29 -7 -42t20.5 -36 t15.5 -41q-11 7 -28 20.5t-25 18.5q-2 -2 -8 -4t-7 -4q-16 -38 -18 -45q-25 -53 -44.5 -63t-86.5 -1q-39 71 0 148q22 39 10 65q-17 -3 -31.5 -10.5t-32 -19.5t-26.5 -17q-35 -19 -70 -4q-2 1 -10 3t-10.5 3t-9.5 3.5t-9.5 5t-7.5 6.5t-7.5 8.5t-5 11t-3.5 14.5z" />
<glyph unicode="+" horiz-adv-x="1026" d="M57 621q-16 47 31 61q134 31 180 37q22 6 123 16q10 24 32 103t46 114q10 3 18.5 4.5t19 -1.5l14 -4t16.5 -8t14 -7q42 -20 53.5 -43t3.5 -70q-8 -30 -16 -78q14 -5 32 -7.5t27 -3t32.5 0t27.5 0.5q64 -2 99 -19t79 -69q-2 -4 -4 -7.5t-5.5 -6.5t-5.5 -5t-6.5 -4t-6.5 -3 t-7.5 -3t-7 -2t-8 -2t-7.5 -2q-156 -22 -213 -28q-9 -1 -30 -5.5t-33 -5.5q-29 -79 -29 -198q-51 -15 -114 12q-35 19 -41 66q-10 90 -11 104q-10 0 -25 2t-22 2q-61 -8 -96 -10q-66 0 -111 37q-7 8 -27 20t-22 13z" />
<glyph unicode="," horiz-adv-x="532" d="M-102 -211q2 56 26.5 141.5t28.5 106.5q20 99 45 233l8 4q48 8 61.5 -4t10.5 -59q0 -19 -6 -53q27 21 36.5 68.5t22.5 62.5q4 0 15.5 0.5t17 0t15.5 -1.5t17 -3t16 -7t17 -12q-5 -43 -12 -61q-113 -312 -133 -365q-8 -25 -31 -55q-16 -20 -39 -23q-7 -1 -15 1.5t-18.5 7 t-19.5 6.5q11 34 14 63q1 6 -2 11.5t-8 7.5q-10 10 -22 -2q-35 -52 -45 -68z" />
<glyph unicode="-" d="M76 606q3 21 14.5 40.5t22.5 25.5q5 2 18.5 8t20 9t19 7.5t21 6.5t20 4t21.5 2q169 11 388 4q89 0 165 -82q-21 -49 -44 -70t-54 -24q-143 -3 -520 -29q-31 0 -49 8q-20 6 -34 35.5t-9 54.5z" />
<glyph unicode="." horiz-adv-x="466" d="M-98 111q5 34 29.5 62.5t58.5 37.5q72 10 86 10q54 0 57 -53q0 -76 -41 -123q-27 -38 -84 -35q-10 2 -33 2q-85 12 -73 99z" />
<glyph unicode="0" horiz-adv-x="1030" d="M-20 346q8 173 75 361q22 72 60 157q0 1 3.5 9.5t4.5 10.5t4.5 10t6 10.5t6.5 9t7.5 9t8 7t10.5 6.5l12 4q15 8 21.5 41t25.5 45q9 8 16.5 22t16 34t12.5 28q6 9 19 29t20 32t15 30.5t12 37.5q2 21 25.5 58.5t25.5 41.5q42 70 49 103q10 41 43 66t78 30q70 4 109 -14 q153 -55 229 -163.5t66 -270.5q-42 -483 -304 -863q-47 -69 -137 -149q-122 -116 -311 -51q-25 6 -105 45q-75 34 -98 118q-13 49 -26 156zM55 312q0 -58 35 -113q-11 46 -11 99t5.5 116t5.5 96q-35 -140 -35 -198zM302.5 311q1.5 -28 6.5 -57q20 13 34 27.5t30.5 37.5 t21.5 29q21 30 64 88.5t65 89.5q2 2 10.5 11.5t11 13t10 12.5t11 14t9.5 13.5t9.5 15t7 14.5t5.5 15q9 27 61 160q21 50 46 182q20 172 22 262q4 106 -49 166q-13 -9 -37.5 -23.5t-34.5 -21.5q7 -45 5.5 -62t-19.5 -53q-185 -344 -264 -719q-2 -14 -8.5 -50t-9.5 -55.5 t-6 -50.5t-1.5 -59z" />
<glyph unicode="1" horiz-adv-x="557" d="M-106 41q-3 33 6 63q4 16 16.5 70t19 80t18 67.5t23.5 73.5q77 215 213 574q3 7 11.5 23t12.5 29t3 28q-69 -9 -107.5 1.5t-66.5 47.5q27 28 79.5 81t78.5 81q191 195 284 296q30 28 43 31t29 -2q10 -3 41.5 0.5t44.5 -8.5q69 -45 96 -98q-4 -13 -14.5 -42t-15.5 -46 q-213 -461 -306 -680q-74 -165 -227 -545q-16 -40 -41.5 -120.5t-30.5 -96.5q-52 -15 -79.5 10.5t-20.5 87.5q3 25 8.5 54t14 66t12.5 56q3 13 8 60q-13 -17 -23 -36t-14 -31.5t-10.5 -32.5t-9.5 -29q-7 -22 -27 -119q-7 -20 -15.5 -29.5t-25.5 -9.5q-28 3 -28 45z" />
<glyph unicode="2" horiz-adv-x="1011" d="M-133.5 21q-2.5 18 6.5 34q38 52 53 119q1 5 5.5 10t12.5 10.5t11 8.5q81 79 178 223q29 43 89.5 149.5t114.5 177t124 117.5q69 47 128 131.5t134 221.5q88 159 -34 156q-93 -3 -251 -81q-79 -41 -142 -143t-95 -219q-101 -7 -141.5 77.5t-2.5 192.5q47 148 179 240 q222 153 493 108q16 -2 27 -6q46 -26 75 -44t66.5 -46.5t66 -62.5t50.5 -74q44 -73 14 -147q-11 -20 -36.5 -75.5t-41.5 -82.5q-43 -73 -100.5 -151.5t-100.5 -130.5t-116 -136q-39 -44 -115.5 -125.5t-93.5 -99.5q-48 -52 -74 -84q18 -6 36 -6.5t41 3t32 3.5q9 1 45 10 t74.5 17.5t84 16.5t72.5 8.5t41 -7.5q14 -13 46.5 -87t54.5 -87q4 -1 6 -6t3.5 -14t2.5 -13q-69 -12 -304 -32t-294 -29q2 22 26 34.5t27 24.5q-4 20 -37 12q-150 -41 -210 -67q-70 -32 -122 -78q-4 -2 -15 -10.5t-15 -10.5q-35 -19 -64 17q-12 15 -14.5 33zM193 256 q39 -3 61 12.5t43 50.5q14 24 100 164q2 2 6 37q-44 -32 -112.5 -118t-97.5 -146z" />
<glyph unicode="3" horiz-adv-x="813" d="M-210.5 72.5q-3.5 37.5 30.5 60.5q35 21 63 35q217 109 279 145q86 44 174 119q53 46 55.5 88t-41.5 101q-6 10 -15 20t-21 22.5t-19 20.5q-28 28 -53 64q-25 34 -24.5 70t26.5 65q12 12 42 43.5t46.5 48t44 38.5t53.5 36q7 4 32 28t42 27q2 0 9.5 1.5l10 2t9 2t8.5 2.5 t7.5 3t7.5 4t6 5.5t6 7t4 8.5t3 11q20 -7 31.5 2.5t21.5 26.5t21 22q32 22 80 74q12 10 22 22.5t24 32.5t18 25q5 5 9 12t8.5 16t8.5 15q-32 24 -41 24q-42 -3 -86 -18q-87 -26 -413 -270q-27 -24 -64 -50q-67 -49 -104 29q-3 8 -6 23t-5 20q-8 0 -21 1t-18 1q0 15 2 17 q6 5 111 88t182 142.5t115 84.5q136 96 258 96q105 0 156 -67q49 -67 88 -136q26 -44 4 -106q-28 -78 -92 -148q-118 -142 -359 -352q-46 -41 -94 -88q12 -15 29.5 -35t29 -34t19.5 -27q57 -92 102 -188q47 -111 -41 -199q-34 -40 -84 -72q-181 -123 -456 -188q-1 0 -3 -1 t-3 -1q-54 -9 -74 1.5t-51 61.5q-48 4 -68 12q-39 15 -42.5 52.5z" />
<glyph unicode="4" horiz-adv-x="919" d="M-39 686q2 7 8.5 30t12.5 38.5t14 29.5q19 38 50.5 81t52.5 67.5t65 73.5q10 17 29 22q9 0 17 2t13.5 4t13.5 7.5t11 7.5t11 9.5t9.5 9.5t9.5 11.5t9 10.5q32 38 104.5 127.5t112.5 136.5q24 30 24 67q-5 23 4 37q44 50 103 105q30 24 59 -2q14 -11 35 -37q40 -52 4 -103 q-17 -21 -46.5 -64t-45.5 -65q-81 -116 -352 -489q-40 -51 -45 -94q5 0 14.5 -1.5t13.5 -0.5q162 66 287 114q39 18 64 62q13 22 38 74t41 77q100 153 250 367q18 26 80 80q23 20 53 0q14 -9 19.5 -23t-0.5 -28q-12 -23 -34 -92.5t-48 -102.5q-21 -27 -39 -57.5t-42 -79 t-32 -64.5q-2 -2 -2 -28q29 19 56 41q-26 -114 -193 -394l-6 2q-6 12 -6 19q31 37 66 118.5t46 102.5q2 2 13 49q-16 -12 -31 -22q-56 -118 -80 -158q-18 -32 -14 -92q-25 -17 -56 -76q-8 -22 -25 -63.5t-24 -59.5q-16 -42 -73 -182.5t-86 -218.5q-9 -33 -31 -156 q-5 0 -20 -2t-23 -2q-4 1 -17.5 6.5t-21.5 7.5q-56 24 -73 50t-11 85q8 108 65 244q18 44 53.5 125.5t49.5 116.5q22 57 22 59q-7 -1 -21 -2t-20 -2q-74 -35 -159 -67q-16 -7 -48 -16.5t-46 -14.5q-25 -3 -46 0q-28 5 -91.5 46t-78.5 64q-22 31 -16 72z" />
<glyph unicode="5" horiz-adv-x="1026" d="M-20.5 146.5q0.5 17.5 12.5 35.5q8 -1 32 -3.5t33.5 -2.5t34.5 2q41 4 113 37q33 11 102 49q194 106 299 209q34 30 84 100q36 45 39 107q-5 30 -14.5 46.5t-32.5 23.5q-94 29 -186 8q-144 -38 -254 -121q-44 -35 -79 -34.5t-73 32.5q-55 44 -72 71.5t-11.5 60.5 t38.5 103q119 271 231 435q13 26 19 36q-21 8 -31.5 14.5t-20.5 18t-8 29t15 41.5l51 17t74 22q89 25 195.5 41.5t179.5 22.5t196 14q70 4 128.5 -42t80.5 -120q-2 -8 -2 -10q-97 9 -281 -15.5t-243 -27.5q-27 37 -41 45q-28 15 -62 -15q0 -49 -3 -64t-23 -55 q-23 -43 -61.5 -118t-53.5 -103q-18 -38 -31 -78q25 -3 81 -9t95 -12.5t74 -16.5q204 -58 291 -308q44 -121 -35 -239q-54 -75 -121 -133q-176 -147 -415 -230q-191 -67 -324 82q-11 15 -16 26t-4.5 28.5z" />
<glyph unicode="6" horiz-adv-x="1107" d="M-63 334q8 93 32 205q54 207 189 432q154 253 278 426q17 20 48 57t48 57q20 29 62 35q26 2 36.5 3.5t26.5 -2t21.5 -7t20.5 -19t23.5 -28.5t31.5 -45q-7 -10 -50.5 -76t-56 -85t-48 -75.5t-54.5 -88.5t-46 -80.5t-50 -92.5q61 10 71 11q6 1 47.5 9.5t63.5 8.5 q211 -8 323 -211q23 -44 24 -105.5t-7 -111.5q-22 -35 -57.5 -104t-69.5 -124t-76 -98q-178 -164 -326 -217q-143 -52 -262 10q-65 29 -80 33q-169 80 -163 283zM223 221q0 -4 2 -12.5t2 -11.5q3 -1 6 -2.5t4.5 -3t2.5 -1.5q4 2 13.5 2.5t12.5 2.5q278 136 414 356 q39 57 39 145q-3 35 -19 51t-51 21q-102 9 -209.5 -54.5t-148.5 -158.5q-68 -157 -68 -334z" />
<glyph unicode="7" horiz-adv-x="948" d="M-35 197q23 90 72 174q26 49 77.5 136.5t71.5 123.5q29 51 31 57q-47 -3 -65 -11.5t-60 -47.5q-69 13 -69 76q-2 50 63 75q93 42 154 49q99 19 161 111q30 47 96.5 129t80.5 100q9 11 30 52q-73 -18 -96 -21q-153 -42 -272 -45q-87 -2 -170 84q-43 49 -15 90 q253 47 615 172q39 13 131.5 42.5t142.5 47.5q36 9 74 -12q51 -33 106 -123q33 -59 -6 -98q-14 -14 -38.5 -39.5t-35.5 -36.5q-85 -92 -346 -367q-1 -3 -9.5 -15.5t-14.5 -22.5q9 -11 30 -26t34.5 -30.5t17.5 -38.5q-3 0 -17.5 -4.5t-23.5 -5.5q-6 0 -16.5 3t-16.5 3 q-90 14 -133 -49q-47 -67 -155.5 -214t-164.5 -228q-90 -134 -137 -289q-83 10 -117.5 64.5t-9.5 134.5z" />
<glyph unicode="8" horiz-adv-x="817" d="M-121 408q6 35 41 108q62 127 178 225q87 80 183 80q-42 115 -54 172q-33 146 56 285q184 276 473 309q55 7 105 -24t77 -86q12 -25 0 -80q-20 -95 -102 -228q-40 -61 -117.5 -172t-91.5 -131q-8 1 -22.5 3t-22.5 3q-39 8 -52.5 37.5t7.5 67.5q3 9 13.5 21.5t14.5 19.5 q33 53 97.5 158.5t97.5 158.5q5 10 15 37t16 41q-51 10 -101 -20q-56 -29 -87.5 -47.5t-75 -52.5t-74.5 -72q-50 -66 -68 -103q-25 -46 -22.5 -125.5t30.5 -126.5q12 -21 47 -65q10 -14 32.5 -39.5t29.5 -34.5q27 -30 45.5 -51t35 -44.5t26 -35t19.5 -35.5t13.5 -30.5 t10.5 -36.5t8.5 -38.5t8 -50t9.5 -57.5q18 -101 -45 -174q-191 -222 -473 -192q-31 2 -70 26q-95 55 -178 172q-65 84 -33 228zM45 201q67 -5 74 -4q191 29 319 133q39 30 64 71q52 68 8 146q-44 88 -137 164q-24 20 -56 18.5t-59 -20.5q-84 -65 -160 -177q-27 -30 -16 -67 q6 4 24 22q3 4 12.5 12.5t16.5 16.5q-9 -53 -45.5 -153.5t-44.5 -161.5zM123 76q0 -11 2 -19q21 -6 42.5 -6.5t44 4t40.5 9t43.5 12.5t40.5 12q10 1 14.5 6t24.5 33q-23 -5 -65 -17.5t-62 -17.5q-20 -3 -61.5 -8t-63.5 -8z" />
<glyph unicode="9" horiz-adv-x="919" d="M-96 100q-4 11 0 29q22 4 28 2q30 -18 63 -15t58.5 14.5t55.5 35.5q110 88 192 215q22 32 44 68.5t48 81t41 69.5q6 11 17 70q-91 -32 -152 0q-5 5 -17.5 4.5t-19.5 1.5q-79 1 -139.5 47.5t-87.5 122.5q-37 126 0 246q87 289 366 452q120 68 215 -14q24 -16 50 -29 q170 -66 192 -266q13 -164 -22 -301q-28 -146 -58.5 -255.5t-79.5 -209.5q-23 -49 -68.5 -117.5t-103 -139t-124 -124t-119.5 -63.5q47 21 142 139t114 176q3 6 16 29.5t17.5 32t14 29t14 33.5t10 31.5t7.5 36.5q-8 2 -13.5 -0.5t-7.5 -6t-4.5 -11t-2.5 -8.5q-9 -16 -35 -57 t-39 -64q-77 -135 -264 -303q-63 -50 -129 -78q-52 -20 -112 -1t-95 63q-9 17 -12 34zM299 1053q-47 -132 12 -138q50 -6 141 74q106 93 157 205q54 119 9 195q-15 1 -23.5 1.5t-20 -6t-17 -10.5t-15.5 -13t-16 -13q-149 -110 -227 -295z" />
<glyph unicode=":" horiz-adv-x="624" d="M-57 291q5 34 29.5 62.5t58.5 37.5q73 10 86 10q54 0 57 -53q0 -76 -41 -123q-27 -38 -84 -35q-15 3 -33 3q-85 12 -73 98zM152 893q5 34 29.5 62.5t58.5 37.5q80 11 86 11q26 0 40.5 -14.5t16.5 -39.5q0 -76 -41 -123q-26 -38 -84 -34q-10 2 -33 2q-85 12 -73 98z" />
<glyph unicode=";" horiz-adv-x="624" d="M-76 23q2 56 27 140.5t29 106.5q19 91 45 234l8 4q47 7 60.5 -5t10.5 -59q0 -18 -6 -53q27 21 37.5 68.5t22.5 62.5q4 0 18 0.5t21 0t18.5 -2.5t21.5 -7t19 -13q-5 -44 -12 -62q-106 -293 -133 -364q-9 -26 -31 -56q-15 -19 -39 -22q-7 -1 -14.5 1t-19 6.5t-19.5 6.5 q11 33 14 64q3 14 -10 18q-10 10 -23 -2q-1 -2 -17 -25.5t-28 -41.5zM152 893q5 34 29.5 62.5t58.5 37.5q80 11 86 11q26 0 40.5 -14.5t16.5 -39.5q0 -76 -41 -123q-26 -38 -84 -34q-10 2 -33 2q-85 12 -73 98z" />
<glyph unicode="=" horiz-adv-x="974" d="M67 523q5 26 39 38q34 14 78 17q230 7 406 -43q27 -8 40 -13t32.5 -17t33.5 -28q4 -7 11.5 -12.5t19.5 -12t16 -8.5q0 -3 -1 -7.5t-1 -6.5h-94h-379q-73 0 -135 21q-29 8 -45 24q-26 22 -21 48zM117 748q21 62 78 73q190 55 397 13q114 -19 186 -132q-2 -17 -10 -32 q-38 0 -47 4q-116 37 -285 2q-160 -31 -284 41q-7 7 -35 31z" />
<glyph unicode="?" horiz-adv-x="983" d="M-16 70.5q-18 40.5 2 81.5q43 89 116 131q33 -1 49 -21t23 -53q7 2 23 8.5t24 8.5t21.5 -1.5t25.5 -15.5q-11 -47 -58.5 -119t-59.5 -98q-9 1 -45 18t-60 8q-43 12 -61 52.5zM43 1063q18 90 102 178q178 187 441 272q200 67 321 76q-77 21 -131 10q-108 -34 -260 -65 q26 19 41 25q162 69 301 69q86 -4 125 -55q7 -7 27 -21t28 -24q41 -44 61.5 -87t14.5 -95q-6 -24 -16 -54q-24 -75 -67 -139t-113 -145q-104 -116 -297.5 -329t-268.5 -296q-22 -22 -35 -24.5t-41 10.5q-33 16 -67 43q-39 30 -19 71q4 7 14 27t16 30t16 25t20 27 q176 213 274 307q49 48 97.5 100.5t119.5 135t93 106.5q12 14 75 102q1 1 5.5 8.5t5.5 9.5t5.5 10t4.5 10.5t3 11.5t1.5 12.5t-0.5 13.5q-30 5 -35 4q-261 -60 -467 -209q-90 -64 -170 -167q-54 -71 -49 -142q-94 0 -156 56q-35 35 -20 102z" />
<glyph unicode="@" horiz-adv-x="1624" d="M-10 311q-2 47 2.5 93t16.5 120t14 90q1 3 3 13.5t2.5 14.5t1.5 13t0.5 14.5t-2 13t-4.5 14.5t-8 14q-3 5 2 32q12 21 27 45q13 24 39 74t39 74q48 101 90 172t96 129q22 25 121 109q8 7 27.5 18t27.5 18q164 133 414 201q129 39 289 -31q66 -25 203 -96q78 -40 145 -149 q28 -55 8 -97q-10 -18 -2 -63q57 -334 -229 -584q-6 -5 -20.5 -14t-20.5 -14q-69 -38 -128 -27t-114 72q-13 -1 -21.5 -7.5t-16.5 -18.5t-13 -17q-29 -25 -81 -74.5t-75 -69.5q-7 -7 -17 -13.5t-24.5 -14.5t-19.5 -11q-58 -28 -105 -8q-53 18 -131 64q-41 20 -49 75 q-7 58 2 103q39 221 207 395q39 -7 94 -10q6 6 16 17t15 16q58 58 143 73q37 10 74 -6q69 -31 127 -92q19 -25 19.5 -56.5t-9.5 -56.5q-3 -12 -10.5 -37t-12.5 -45t-7 -38q-9 -53 -9 -146q0 -7 15 -33q81 26 140 103.5t79 183.5q-16 -9 -25 -18q-7 -12 -20.5 -38t-25 -46 t-23.5 -37q-5 -15 -37 -31q-5 -3 -14 -2.5t-13 2.5q-17 17 -14 27q7 22 26 53q91 198 117 289q24 93 21 168q-9 147 -162 213q-53 19 -129 8q-129 -16 -266 -103q-86 -58 -107 -79q-344 -310 -412 -734q-36 -204 29 -378q33 -89 78 -134q29 -29 68 -26q143 18 268 76 q52 20 139 71q80 34 135 66q6 -8 7 -14t-0.5 -8.5t-6.5 -6t-6 -4.5t-131 -96q-8 -7 -25.5 -18t-27.5 -19q40 1 75 19.5t150 95.5q123 82 182 163q60 -5 80 -16q21 -11 35 -35q-3 -4 -11 -19t-14 -22q-12 -13 -26.5 -26t-32 -29t-27.5 -25q-146 -117 -288 -192 q-144 -80 -289 -86q-92 0 -160 16q-170 47 -309 133q-25 12 -45 52q-24 53 -70 67q-41 8 -53 70q-10 62 -10 108zM727 524q50 6 84 43q39 45 43 49q62 47 102 112t80 161q14 44 -4 67q-138 -48 -239 -233q-51 -85 -63 -122.5t-3 -76.5z" />
<glyph unicode="A" horiz-adv-x="923" d="M-191 225q5 26 13.5 42t20.5 40t16 41q-10 8 -31 29q-19 19 -19 36q0 19 25 36q40 27 84 45q45 12 66 53q207 301 505 651q12 14 45.5 52.5t45 52t35 42.5t42 55t39.5 58q102 150 164 209q8 -2 26 -5t28.5 -5.5t24.5 -8t24.5 -15t19.5 -23.5q5 -8 26.5 -17.5t26.5 -13.5 q25 -17 30 -31.5t-5 -42.5q-36 -106 -70 -178q-130 -306 -235 -602q-5 -10 -11 -30t-8 -25q6 -12 18 -23.5t22 -19t18 -20t8 -27.5q-12 -11 -28 -16t-39 -7.5t-36 -5.5q0 -2 1 -13t0 -17t-5 -11q-2 -8 -14.5 -20t-13.5 -13q-9 -14 -17 -37q-105 -328 -147 -477 q-4 -13 -27 -137q-21 -9 -46 -9q-39 0 -89 21q-18 3 -23 37q-7 25 -7 55q0 36 10 78q20 98 49 201q30 108 30 226v22q-31 0 -47 -4q-34 -5 -96.5 -19.5t-91.5 -19.5q-57 -8 -92 -64q-3 -4 -33.5 -50t-42.5 -73q-32 -65 -101 -65q-17 0 -36 4q-8 2 -23.5 6t-23.5 6 q-10 21 -5 47zM252 575q37 8 107.5 23.5t107.5 22.5q22 63 67.5 187.5t67.5 186.5q0 7 -6 19q-25 -15 -27 -17q-49 -63 -299 -376q-3 -5 -8 -20t-10 -26z" />
<glyph unicode="B" horiz-adv-x="1214" d="M-213.5 -23q5.5 12 33.5 25q21 10 62 28.5t55 24.5q0 2 -2.5 7.5t-2.5 7.5q-9 2 -35 9.5t-42 10.5q-3 11 -4 20.5t1.5 20.5t4 16.5t7 19t7.5 17.5q15 47 45 132.5t41 117.5q36 115 51 195q9 65 53 166q17 53 53.5 146.5t43.5 111.5q5 12 28 69q-19 7 -46.5 -5.5 t-41.5 -12.5q-20 20 -20 29q0 47 -27 81q-3 3 0 15t10 16q12 15 41 29q65 36 166 88q46 22 64 57q3 6 14 27t16.5 31t17 25t23.5 26q83 0 113 -58q45 9 57 13q9 3 68.5 19.5t91.5 23.5q44 11 129 18q83 14 152 19q30 3 50 3q10 0 17 -1q89 -3 129 -64q6 -9 31 -37t31 -47 q11 -22 11 -41q0 -24 -17 -45q-34 -46 -80 -86q-50 -40 -185 -135q-89 -64 -239 -154q-6 -6 -49 -36q46 -6 75 -11q-8 -4 -12 -4q-12 -1 -38 -1t-38 -1q-6 -1 -14 -4.5t-20.5 -10t-22.5 -11.5q99 -4 283 -15q-18 8 -78 43q13 -4 34 -9t29 -9q131 -81 164 -193q3 -11 3 -23 q0 -41 -38 -87q-100 -150 -309 -285q-285 -187 -659 -373q-8 -3 -58 -22.5t-75 -30.5q-19 -7 -36 -7q-35 0 -63 28q-3 3 -19 21t-22 26q-18 24 -12.5 36zM147 190q12 -4 15 -4q84 44 155 86q234 138 355 226q3 2 11.5 8t12.5 8.5t11.5 8.5t11.5 10.5t8.5 11t7.5 12.5 q10 13 43 51q30 26 82 74q1 2 17 33q-27 12 -76 12q-15 1 -31 1q-113 0 -264 -32q-24 -5 -51.5 -13.5t-60 -19.5t-50.5 -16q-54 -17 -70 -76q-74 -208 -110 -317q-1 -2 -17 -64zM385 911q8 4 23.5 12.5t21.5 10.5q31 19 119.5 73t138.5 85q24 16 75.5 48.5t91 59t73.5 53.5 q2 2 5 8.5t5 8.5q-16 9 -38.5 -4t-37.5 -6q11 10 79.5 59t94.5 84q-15 6 -22 6q-23 0 -37 -2q-226 -40 -418 -107q-44 -11 -63 -57q-24 -72 -107 -297q0 -1 -4 -35zM946 1509q18 -18 21 -18q27 3 80.5 8t80.5 8q0 2 1 7.5t1 7.5q-38 6 -90.5 6t-93.5 -19z" />
<glyph unicode="C" horiz-adv-x="1134" d="M-31 240q-12 49 -12 105q0 78 23 169q43 206 153 391q96 172 193 320q109 165 241 262q61 38 90 51q58 28 115 28q85 0 168 -63q16 -13 50 -40t50 -40q103 -90 103 -192q0 -82 -68 -172q-21 -27 -47 -53q-5 -6 -13 -12t-11 -5q-17 10 -32 5.5t-22 -11.5t-17.5 -19.5 t-17.5 -17.5q-4 -3 -17 -14.5t-22.5 -15.5t-21.5 -1q-61 16 -80 52q-10 10 0 34q7 15 23 38.5t20 29.5q21 34 34 56.5t33 64t29 71.5t9 62t-15 53q-52 0 -92.5 -24t-61 -53.5t-49.5 -74t-51 -67.5q-2 -3 -13.5 -17t-16.5 -18.5t-15 -13t-19.5 -12.5t-21.5 -6q-8 -1 -30 -23 q-144 -221 -178 -279q-159 -272 -169 -477q-1 -18 -1 -36q0 -81 22 -158q23 -3 45 -3q28 0 56 5q48 9 95.5 34.5t80 48.5t81.5 60l27 21q219 177 338 356q68 -13 88 -66q9 -19 13.5 -30.5t9 -29t3 -35t-7.5 -34.5q-46 -126 -147 -241q-109 -118 -272 -207q-4 -2 -43 -19 q-52 -24 -103 -24q-57 0 -113 29q-41 24 -98 24h-5q-63 0 -146 45q-113 57 -144 189z" />
<glyph unicode="D" horiz-adv-x="1337" d="M-377 23q30 20 35 22q59 15 176 49q41 13 60 68q107 351 294 788q10 20 31 82q-33 47 -43 60q6 13 25 61q-15 -7 -78 -37q-5 10 -8 19q18 11 49 31t43 28q7 13 3 29t-8 24t-13 22t-13 23q6 4 20 16.5t23 18.5q100 57 160 82q55 25 74 70q73 122 100 153q25 4 34.5 2 t28.5 -10.5t29 -11.5q6 6 17.5 19.5t17.5 19.5q44 -15 52 -25.5t13 -58.5q7 2 23 5t23 5q73 26 142.5 42.5t150.5 21.5q21 1 42 1q56 0 106 -10q68 -14 130 -57.5t100 -114.5q30 -56 34 -118q1 -12 1 -24q1 -50 -13 -99q-16 -61 -51 -126.5t-78.5 -124t-97.5 -118.5 q-69 -116 -192 -229q-118 -104 -258 -209q-8 -7 -205 -154q-4 -3 -11 -8.5t-12.5 -9t-9.5 -4.5q-35 -6 -69 -24t-72 -44.5t-61 -38.5q-46 -22 -127 -65.5t-105 -55.5q-46 -21 -57 -63q-5 -19 -15.5 -57t-16.5 -58q-20 -15 -42 -14.5t-35 18.5q-7 9 -10.5 22t-6 33t-5.5 31 h-3q-18 0 -68 -10q-32 -6 -56 -5q-19 0 -35 3q123 34 131 35q60 9 66 73q-48 5 -56 11q-8 3 -16 8.5t-20 16t-17 14.5q-3 0 -97 -25q-73 -20 -126 -20q-14 0 -27 2zM43 219q5 1 11 1q3 0 3 1q249 556 404 834q2 2 8 26q-28 22 -38.5 21.5t-20.5 -23.5q-31 -72 -97 -213.5 t-98 -212.5q-28 -66 -81 -199t-81 -198q-3 -4 -4.5 -10t-3 -14t-2.5 -13zM123 29q31 18 336 194q2 2 3 5t1.5 7.5t1.5 6.5q-20 -3 -21 -4q-156 -84 -235 -109q-9 -4 -28 -14t-21 -11q-37 -18 -37 -67v-8zM193 209q79 42 124 76t74 75q-45 -29 -116.5 -75.5t-81.5 -53.5v-22z M225 313q9 4 17.5 7t12.5 4.5t7 3.5q42 27 126.5 80.5t135.5 86t121 81t127 92.5q169 126 311 301q71 83 105 157q31 68 31 120v9q-3 54 -33 93q-32 40 -86 58q-49 16 -114 16h-15q-75 -2 -160 -27q-33 -10 -57 -20t-44 -26t-32 -27.5t-27 -38t-22.5 -43t-25.5 -57 t-30 -65.5q-17 -33 -41 -95t-32 -79q-45 -98 -128 -283.5t-120 -267.5q-1 -3 -10 -31t-17 -49zM1239 1444q22 -31 31 -40t43 -32q3 45 -10 58t-64 14z" />
<glyph unicode="E" horiz-adv-x="956" d="M-102 174q25 122 45 209q23 88 80 291q6 19 6 36q0 22 -11 40q-7 15 -7 28q0 27 28 47q32 28 39 49q25 66 76 197.5t77 196.5l-6 12q-27 38 -27 60q0 24 44 49q82 39 137 116q1 1 18 8q-2 -14 -10 -51q225 49 576 90q4 -8 23.5 -44t27.5 -54q13 -18 12 -22q-7 -12 -4 -33 t7.5 -32.5t13 -33t12.5 -35.5q-36 -2 -98.5 -8t-90.5 -8q-44 -3 -142 -10t-151 -10q-21 0 -45 -7q-30 -17 -34 -30q-33 -83 -103 -275q10 -1 26 -3.5t25 -2.5q56 4 86 8q20 2 40 2q87 0 159 -43q7 -4 13 -9t12 -11.5t10 -11t9.5 -13.5t8 -12.5t8 -15t7 -14.5t7.5 -17t7 -16 q-7 -1 -18.5 -5.5t-16 -6t-12.5 0.5q-11 5 -23.5 7.5t-20.5 4t-24 0.5t-21 -1.5t-24.5 -3.5t-21.5 -3q-45 -6 -136.5 -21.5t-136.5 -21.5q-42 -6 -55 -41q-28 -81 -164 -481q0 -2 2 -6.5t2 -7.5q5 -7 12 -8t17.5 2.5t13.5 3.5q225 57 373 73q27 3 45 3q24 1 34 -5 q16 -10 40 -77q-29 -10 -112.5 -23t-129.5 -37q9 0 18.5 -1t15 -1t9.5 2q71 9 133 21q5 1 11 1q45 0 71 -48q-29 -10 -84 -18.5t-71 -12.5q-77 -18 -231.5 -55.5t-231.5 -55.5q-48 -10 -86 -10q-45 0 -45 45v6q3 29 -15 49q-30 34 -30 86q0 14 2 29zM213 1020q2 -8 2.5 -25 t1.5 -22q5 13 55 119t66 165h-7q-64 0 -81 -57q-32 -87 -35 -98q-11 -24 -11 -46q0 -19 9 -36z" />
<glyph unicode="F" horiz-adv-x="866" d="M-111 258q12 63 25 98q51 159 104 301q12 28 11.5 56.5t-27.5 50.5q-23 21 -20 44.5t28 41.5q25 19 64 35q38 17 59 57q8 16 158 305q20 40 15 59.5t-42 41.5q-34 22 -38.5 49t22.5 55q26 26 51 37q148 82 326 98q62 10 155 17q21 3 43.5 3t47 -2t43 -4.5t47 -7 t43.5 -6.5q23 0 40 -20t25.5 -31.5t16.5 -33t6 -44.5h-43q1 -11 10 -55q-5 -1 -11 -4l-8 -4q-325 -44 -346 -47q-49 -6 -69 -45q-107 -198 -166 -310q-2 -3 -3 -8t-2 -13t-3 -14q13 -1 37 -2t36 -2q86 -8 125 -14q57 -12 99 -58.5t51 -109.5q-32 7 -67.5 10t-62.5 4h-24h-45 q-42 -2 -62.5 -3.5t-68 -5.5t-63.5 -5q-53 -6 -72 -51q-141 -329 -207 -557q-11 -37 -35 -189q-4 -24 -8 -38q-46 0 -66 2q-35 5 -49.5 21.5t-13.5 51.5q0 12 3.5 35t4.5 29q2 18 2 55l-9 9t-9 7q-60 23 -60 86q0 12 2 25zM313 1210q-7 -12 -7 -24q0 -19 18 -39 q47 60 57 117q-11 0 -20 -2t-14.5 -5t-11.5 -10t-8 -11t-7 -13.5t-7 -12.5z" />
<glyph unicode="G" horiz-adv-x="1206" d="M-8 276q-3 29 -3 62q0 112 36 268q91 383 331 674q96 114 197 184q45 31 125 72q72 31 144 31q85 0 169 -43q45 -25 84 -25q21 23 68 78q27 27 51 8q10 -6 23 -11t21 -6.5t26.5 -4.5t23.5 -4q10 -2 49 -27q-1 -3 -8 -31q-33 -85 -96 -241t-90 -226q-23 -53 -41 -94 q-25 -45 -54 -51q-5 -1 -10 -1q-26 0 -65 27q-47 -18 -49 -18q-12 -3 -23 -3q-34 0 -60.5 25t-26.5 56q0 11 3 22q15 56 74 193q33 69 33 146q0 55 -17 114q-38 -8 -53 -14q-125 -68 -225 -199q-225 -278 -310 -657q-30 -157 -30 -260v-23q0 -2 16 -115q42 17 47 21 q104 89 131 114q29 27 90 82.5t91 83.5q8 8 17 18t22 24t22 24q-5 0 -30 2t-32 3t-27 4t-28.5 7t-23 11t-25 17.5t-20.5 24.5q6 3 23 14.5t26 14.5q153 65 426 123q96 19 125 23q9 1 17 1q30 0 53 -14q30 -18 63 -55q10 -10 10 -26q0 -18 -12 -42q-23 -4 -113.5 -14.5 t-138.5 -26.5q-135 -335 -162 -403q-5 -16 -19 -57t-20 -64q-5 -23 -9.5 -67t-6.5 -58h-11q-61 0 -92 31q-29 29 -29 81q0 9 1 19q1 13 5.5 41.5t6.5 44.5q-20 -8 -34.5 -19t-34 -32.5t-21.5 -23.5q-16 -15 -43 -44t-41 -42q-58 -49 -90 -64q3 5 16 31q10 15 25 33 q-17 4 -30.5 -3t-17.5 -12t-14 -20q-25 -40 -62 -40q-17 0 -38 9q-2 5 -4.5 11.5t-5.5 13.5t-4 10q-8 4 -17 4q-12 4 -39 4q-149 0 -209 152q-20 54 -26 124zM270 160q-9 68 -9 136q0 80 13 159q23 147 78 340q-12 -13 -22 -29.5t-16 -28.5t-12.5 -34.5t-9 -31t-9 -35 t-7.5 -32.5q-36 -127 -36 -242q0 -106 30 -202z" />
<glyph unicode="H" horiz-adv-x="1363" d="M-41 -133q19 138 31 205q1 9 7 30t7 33q-9 9 -45 49q30 129 119 490q-3 3 -19.5 14.5t-23.5 16.5q-20 16 -20 28.5t20 22.5q11 6 15.5 8.5t8.5 9t2 14.5q0 7 23 13q15 3 25.5 10.5t14.5 14.5t9 20q56 164 174 362q37 59 77 127t88.5 153.5t74.5 129.5q20 31 37 47 q4 -6 10.5 -14t9 -12t0.5 -5q-1 -4 -4.5 -14.5t-4.5 -15t-3 -14t-1.5 -15t1.5 -13.5t4.5 -15.5t9.5 -14.5q4 -6 2.5 -15t-6.5 -14q-29 -36 -58.5 -110t-37.5 -90q-29 -69 -57 -211q25 25 28 36q11 26 30 73.5t25 60.5q3 4 17.5 13.5t17.5 16.5q10 21 32.5 60.5t37 72 t20.5 64.5q3 4 8.5 10t13.5 13t11 10q-4 -33 -15 -67t-32 -81.5t-27 -64.5q-9 -27 -36.5 -103.5t-40.5 -120.5q-2 -5 -76 -219q46 -5 49 -4q72 9 203 27t178 24q26 3 38 12.5t17 28.5q12 28 35.5 93t36.5 96q111 268 205 413q28 45 63 80q16 21 48 21q13 0 28 -4 q68 -17 123 -62q8 -6 16.5 -13.5t13.5 -12.5t14.5 -16.5t12.5 -14.5q-177 -242 -309 -635q14 -12 41 -38t39 -36q-6 -14 -17.5 -19t-22.5 -4.5t-31 3.5t-30 4q36 -33 66 -72q-21 -52 -88 -52q-17 0 -37 3q-4 -13 -28.5 -89.5t-31.5 -98.5t-25.5 -85.5t-26.5 -98.5 t-18.5 -86.5t-16.5 -96.5l-11 -4q-27 13 -45 27q-19 -29 -37 -85.5t-22 -66.5q-21 -7 -51 -10q-11 -2 -21 -2q-25 0 -46 10q-29 14 -38 47q-6 14 -6 60q14 63 40 190t40 190q5 31 13.5 62t22 76.5t17.5 58.5q9 30 17 66q-208 -13 -469 -52q-27 -80 -84 -227q-27 23 -29 27 q-14 0 -16 -2q-12 -18 -4 -56q5 -18 2.5 -40.5t-25.5 -34.5q-14 -7 -18 -39q-42 -204 -48 -240q-1 -4 -36 -182q-4 -21 -9 -72t-10 -80q-10 -2 -32.5 -2t-57.5 2q-73 9 -82 60q-9 31 -4 53z" />
<glyph unicode="I" horiz-adv-x="536" d="M-129 35q-1 9 -1 19q0 41 17 96q1 3 80 225q10 35 10 41q-1 10 -1 20q0 20 4 44q6 34 12 53.5t23.5 62.5t21.5 55q13 42 29 83.5t44 107.5t35 82q7 19 154 372q35 95 107 201q3 6 14.5 17t15.5 16q6 -3 27 -11t29 -12t22 -13t22 -19.5t13 -24.5t31 -18q48 -23 65 -56 q-72 -184 -92 -231q-203 -503 -322 -924q-25 -74 -63 -260q-9 -43 -24 -54t-62 -7q-6 2 -27 2q-50 6 -53 51q-2 6 -3.5 17.5t-2.5 13.5q-61 4 -90 8q-32 6 -35 43zM-20 28.5q1 -3.5 4.5 -12.5t5.5 -16q5 10 9.5 20.5t7 19t5 20t3.5 18t2 19.5t1.5 17t1 18.5t0.5 17.5 q-8 -10 -14 -21t-10.5 -24.5t-6.5 -21.5t-5 -25t-4 -23q-1 -3 0 -6.5z" />
<glyph unicode="J" horiz-adv-x="1204" d="M20 111q-28 107 -28 210q0 131 45 257l9.5 19t12.5 21q19 26 44 41t59.5 13.5t68.5 -25.5q3 -2 6.5 -5t9 -7.5t9.5 -7.5q-55 -133 -55 -265q0 -72 16 -143q7 -36 10.5 -50.5t14.5 -40.5t26 -44q16 -21 29 -26t37 5q30 7 63 33q95 67 168 180q14 21 30.5 47.5t26.5 45 t28.5 52t25.5 46.5q34 69 78 182q16 43 28 132.5t35 138.5q21 45 49.5 133.5t34.5 105.5q5 18 0 23q-15 11 -17 39.5t-7 38.5q-42 0 -74 -6t-50 -12.5t-71 -27.5q-35 -14 -72 -31.5t-90 -43.5t-80 -39q27 36 45 57q-13 0 -37.5 -1.5t-35.5 -0.5q-25 3 -47 25q-15 14 -15 32 t15 31q30 20 57 41q3 43 8 76q57 26 94 37q182 56 260 78q59 17 351 100q8 2 22 5t25.5 6t21.5 7q5 1 26.5 5t30.5 5t24.5 -1.5t27.5 -10.5q9 -7 31 -21.5t34 -23.5t25 -26.5t18 -38.5q-40 -40 -82 -45q-21 -2 -45 -7.5t-54 -14.5t-46 -13q-2 -1 -3 -3.5t-3 -7t-4 -8.5 q6 0 16 -0.5t17.5 -0.5t13.5 1q19 4 72 14.5t83 16.5q5 2 25 -12q-1 -2 -3 -8t-4 -10t-5 -5q-13 -3 -41 -10t-45 -10q-15 -2 -43 -10t-33 -9q-40 -6 -49 -47q-1 -3 -3 -11t-3 -11q-43 -205 -148 -494q-28 -75 -92 -287q-7 -19 -24 -56.5t-19 -43.5t-10 -26.5t-11 -34.5 t-1 -31q2 -13 -19 -49q-74 -125 -153.5 -209t-166.5 -128q-70 -35 -144 -35q-20 0 -40 2q-95 12 -192 81q-113 39 -142 152z" />
<glyph unicode="K" horiz-adv-x="1120" d="M-127 -43q13 73 29 133q43 201 66 302t67 266t90 298q4 18 14.5 49.5t14.5 47.5q2 2 9.5 16t14.5 18q12 5 21 12.5t14.5 19t8 18.5t6.5 23.5t5 21.5q7 39 58 268q11 41 28 86q41 3 51 -3.5t29 -49.5q17 30 70 64.5t59 39.5q80 -8 111 -37q4 -7 0.5 -21t-5 -19t-8 -17.5 t-8.5 -17.5q-27 -82 -80.5 -233t-66.5 -187q-15 -46 -42 -132.5t-36 -113.5q-2 -7 -7 -28t-9 -36q37 26 41 31q278 294 332 348q83 90 262 222q29 20 66 20q11 0 24 -2q53 -14 65 -45q3 -5 29 -31q6 -4 37 -35q-8 -8 -16 -15.5t-9 -8.5q-132 -99 -368 -317q-17 -15 -25 -23 q-100 -96 -299 -279q-22 -20 -22.5 -31t18.5 -36q13 -14 38 -41t46 -49t41 -41q111 -117 176 -224q7 -10 25 -31t26 -34q36 -59 92 -80q13 -5 18 -12.5t1.5 -16t-14.5 -16.5q-34 -27 -68 -27q-24 0 -47 13q-60 29 -90 59q-217 181 -357 334q-10 11 -40.5 43t-47.5 53 q-14 -16 -20.5 -35.5t-10.5 -42t-8 -33.5q-14 -40 -30 -116q-3 -24 -14 -66.5t-13 -54.5q-15 -70 -20 -117q-2 -7 -23 -121q-24 -28 -64 -28q-26 0 -59 12q-29 31 -32 69q-1 8 -1 16q0 29 9 54q11 39 20 90q5 28 -12 35q-7 3 -15.5 -6t-11.5 -25q-21 -79 -26 -135 q-3 -44 -19 -69q-3 0 -11 -2t-11 -2q-41 -2 -55.5 11.5t-10.5 49.5z" />
<glyph unicode="L" horiz-adv-x="1026" d="M-189.5 52.5q6.5 25.5 27.5 35.5q13 5 24.5 11.5t21.5 16.5t17.5 16.5t15.5 20.5t12 20.5t11.5 24t9.5 23t9.5 26t9.5 25.5q58 164 173.5 477.5t166.5 458.5q4 11 16.5 47.5t18.5 53t17.5 45.5t23.5 51.5t25 44.5q3 4 23.5 34.5t31.5 47.5q17 32 82 61q23 7 39 -4.5 t16 -34.5q0 -53 -20 -73q-18 -15 -29 -45q-11 -32 -37 -99.5t-44.5 -121.5t-29.5 -105q-22 -103 -77 -252q-4 -22 -4 -38t4 -27q-2 -5 -11 -14.5t-10 -16.5q-84 -300 -104 -377q-2 -6 1 -19t3 -16q39 89 73 240q10 35 25 103t23 100q9 7 15 14t10.5 17.5t6.5 15.5t5 20.5 t4 18.5q31 143 139 407q17 39 37 79.5t49.5 95.5t42.5 81q17 -5 52 -7t58 -11.5t39 -36.5q-141 -233 -225 -518q-16 -54 -18 -86q0 -15 2.5 -42.5t3.5 -35.5q-11 -5 -25 -5q-17 0 -39 8q-40 14 -57 11q-38 -78 -95.5 -278t-60.5 -267q11 1 34.5 2.5t35.5 2.5q243 43 272 49 q14 3 27 3q57 0 106 -52q2 -2 6.5 -7.5t6.5 -7.5q29 -34 51 -108q3 -15 31.5 -42.5t29.5 -54.5q-6 0 -16 -2t-16 -2q-244 0 -541 -61q-23 -3 -41 -10q-51 -13 -60.5 -25t-17.5 -68q0 -4 -6 -10q-7 10 -17.5 28t-13.5 23q-19 -10 -21 -27t2.5 -30.5t-5.5 -28.5q-35 -6 -60 -6 q-32 0 -48 11q-28 20 -58 112q-12 6 -28 -5t-17 -11q-6 -1 -12 -1q-26 0 -63 16q-46 20 -58 46q-8 19 -1.5 44.5z" />
<glyph unicode="M" horiz-adv-x="1495" d="M-170 -76q2 78 25 197q67 308 206 649q33 87 102 241.5t93 211.5q46 97 76 174q17 28 35 73q3 5 12 24t17.5 26.5t23.5 7.5q66 0 102 -29q5 -3 9.5 -8t10 -13.5t9.5 -13.5q2 0 9.5 1t15 1t12.5 -2q14 -2 37 -20q4 -6 1 -20t-4.5 -18t-7.5 -17t-8 -17q-25 -71 -28 -153 v-67q0 -74 -1 -180q-2 -159 -2 -218v-28q0 -121 31 -204q7 10 19 24.5t16 20.5q208 313 494 629q243 265 276 299q31 29 76 61q21 -2 31.5 -13t18.5 -28.5t17 -25.5q6 3 23 13t27 14q30 -5 55 -46q-9 -31 -14 -43q-200 -470 -220 -520q-166 -397 -256 -778 q-2 -10 -6.5 -29.5t-7.5 -35t-4 -29.5q-2 -16 -3 -101q-7 -1 -30 -6t-37 -6q-9 -1 -17 -1q-40 0 -64 20q-29 24 -29 73q-1 13 -1 25q0 63 13 125q48 309 191 692q3 13 8 26.5t12 30t10 25.5v14q-12 8 -20 -8q-28 -35 -98 -122t-120.5 -151.5t-95.5 -125.5 q-120 -159 -192 -303q-8 -19 -28.5 -47t-26.5 -39q-16 -1 -28 9t-18 22t-18 22t-29 10q16 -51 21 -72q-24 -4 -40.5 3.5t-37.5 25.5q-48 58 -57 123q-18 143 -23 231q-2 20 -2.5 57.5t-3.5 67.5t-12 56q-2 11 -2 15.5t2.5 17t3.5 16.5q4 73 4 98v8q-18 -34 -33 -74 t-30.5 -89.5t-26.5 -77.5q-11 -31 -39 -112t-45 -124q-13 -36 -40.5 -118.5t-43.5 -125.5q-9 -26 -24 -75.5t-28.5 -89.5t-29.5 -76q-5 1 -16 2t-15 2q-36 6 -47.5 19.5t-5.5 43.5q6 25 16.5 74t16.5 74q14 60 18 69l-8 7q-4 0 -4 -5q-12 -12 -14 -16q-23 -76 -31 -98 q-11 -37 -29 -108t-26 -99q-49 3 -60.5 12t-7.5 43zM478 504q8 -113 26 -158q31 28 31 74v8q-17 92 -19 102q-4 15 -33 164q-8 -48 -9 -109q1 -38 4 -81z" />
<glyph unicode="N" horiz-adv-x="1247" d="M-123 156q143 476 182 614q21 -6 37 -10q9 27 33.5 100t40 124t27.5 101q16 56 51 160t43 131q1 3 3 9.5t3 9.5q9 23 21.5 28.5t35.5 -0.5q3 -1 62 -16q1 0 6 2t8 2q7 14 9 28.5t0.5 38t-1.5 29.5v146q2 25 8.5 33t26.5 8q32 0 72 -8q10 -1 30.5 -9.5t30.5 -11.5 q41 -11 41 -49q5 -33 8 -78q-1 -20 -1 -40q0 -69 8 -146q2 -30 11 -82.5t11 -69.5q58 -385 68 -461q8 -49 10 -71q13 5 20.5 14t8 13.5t2.5 17.5q72 242 168 479q12 28 106 215q1 1 2 4q22 43 47 56q3 2 6 3q8 -1 52 -12q6 -1 18 -5t16 -3q24 8 33.5 5t27 -13t29.5 -12 q-6 -17 -27.5 -62.5t-27.5 -71.5l7.5 -5l7.5 -5t4 -2q38 1 44 -7.5t-6 -45.5q-108 -269 -210 -559q-51 -146 -154 -500q-8 -32 -49 -240q-1 -2 -1.5 -5.5t-1.5 -6.5t-3 -6q-20 -13 -59.5 -9t-55.5 -5q-108 82 -141 229q-39 118 -64 250q-56 252 -92 647q-6 30 -8 37 q-9 -3 -15.5 -8.5t-8.5 -10t-5 -13t-4 -11.5q-24 -74 -85.5 -264t-94.5 -293q-28 -89 -75.5 -260t-53.5 -193q-7 -22 -29 -125q-12 0 -37.5 -1.5t-36.5 -0.5q-51 3 -51 49v5q-1 25 12 112q0 6 5 41q-49 39 -94 39h-7q0 4 -2.5 13.5t-1.5 13.5z" />
<glyph unicode="O" horiz-adv-x="1087" d="M-20 313q-5 52 -5 104q0 138 33 279q69 317 213 559q54 85 98 138q46 60 103 60q28 0 59 -15q4 -1 49 -19q45 25 76 49q63 45 134 45q52 0 108 -24q9 -3 25 -12.5t22 -12.5q128 -39 162 -190q19 -87 19 -171q0 -116 -36 -226q-82 -257 -260 -558q-70 -117 -188 -223 q-2 -2 -25 -23.5t-28.5 -26t-26.5 -22t-30.5 -22t-29.5 -14.5t-34 -11t-33 0t-37 7q-4 2 -25 18.5t-30 15.5q-13 -1 -37 -4t-35 -4t-21 -1q-71 0 -128 65q-82 95 -92 239zM176 186q0 -3 -1 -6q0 -26 24 -53q4 -7 12 -12t19 -10.5t16 -8.5l5.5 5.5t5 4.5t4 4t2 4.5t-0.5 4.5 q-41 240 -49 293q-12 -27 -19 -60.5t-9.5 -52.5t-5 -61t-3.5 -52zM291 240q0 -22 1 -33.5t9 -28t23 -28.5q2 2 21.5 15t27.5 21q91 85 143 195q153 312 258 543q70 163 70 347q0 28 -2 56q-1 6 -7 22.5t-8 28.5q-44 -27 -51 -35q-79 -63 -141 -174q-72 -135 -191 -374 q-16 -33 -24 -45q12 94 74 223q65 157 96 211q16 32 34 62t50.5 78.5t44.5 68.5q-49 -18 -82 -56q-86 -92 -141 -217q-3 -6 -23 -44t-25 -48l-22 -44t-23.5 -49t-20 -44.5t-20.5 -49.5t-15.5 -46t-14.5 -50q-44 -180 -44 -398q0 -52 3 -107zM389 45q14 -8 31 -8q19 0 43 10 q75 42 108 100l-34 3q-44 -55 -106 -55q-6 0 -13 1q-30 0 -30 -36q0 -7 1 -15z" />
<glyph unicode="P" horiz-adv-x="1232" d="M-143 106q16 100 30 146q110 396 152 522q8 20 8 76q0 12 16 33t17 32q4 21 11.5 42t19 46t16.5 39q38 102 56.5 150t55.5 129.5t74 144.5q4 10 10.5 20.5t14.5 23t12 18.5q37 -4 41 -6q9 -4 33 -17.5t37 -15.5q10 -4 21 -5t25.5 -0.5t22.5 -0.5q1 0 13 -8 q-4 -11 -34.5 -55.5t-31.5 -80.5q14 8 34 19t28 16q200 125 419 187q65 18 117 18h15q111 -6 176 -74q72 -84 98 -176q12 -44 12 -83q0 -42 -14 -79q-10 -22 -31.5 -78.5t-36.5 -87.5q-50 -111 -155 -206q-137 -122 -363 -265q-247 -159 -457 -237q-27 -13 -47 -15.5 t-43.5 9t-46.5 41.5q-40 -122 -82 -289q-4 -21 -14.5 -64.5t-16 -70t-9.5 -64.5q-3 -30 -3 -58v-13q-11 -10 -24 -12.5t-23 -0.5t-27 7.5t-26 7.5q-28 26 -28 62q0 12 3 24q1 20 6.5 55.5t6.5 40.5q2 23 10 80q-51 18 -64 20q-25 11 -32.5 21.5t-1.5 31.5zM256 602 q9 -8 18 -10t14 -1t14 5.5t13 5.5q361 160 615 367q175 140 258 280q35 49 45 117q5 1 1.5 20t-3.5 23q-3 1 -18 4t-19 3.5l-16 2t-18 1t-15 -2.5t-17 -6q2 -8 19 -29.5t10 -38.5q-17 4 -20 7q-25 21 -65 21q-15 0 -32 -3q-30 -7 -55 -16q-301 -112 -555 -312 q-47 -36 -65 -98q-3 -19 -17 -52.5t-18 -45.5q-15 -47 -40 -130.5t-34 -111.5z" />
<glyph unicode="Q" horiz-adv-x="1181" d="M-10 346q-2 29 -2 57q0 102 26 193q111 433 385 778q29 38 88 90q33 25 56 6q13 -4 20 -2q27 6 52 -4t39 -23t38 -40q-77 -82 -136.5 -179.5t-125.5 -230.5q-147 -291 -192 -555q-9 -71 -9 -190q0 -46 23 -64q39 9 104 62q99 74 222 211q432 517 464 915q3 41 0 60.5 t-20 58.5q-37 -3 -65.5 -19.5t-65.5 -50.5q-47 -53 -88 -121q-150 -242 -244 -510q-40 -106 -43 -208q-32 -14 -47 12q-1 4 -6 18.5t-7.5 25t-2.5 21.5q0 43 10 91q1 8 9 38.5t9 53.5q-32 -54 -40.5 -106t-8.5 -126h-14q-14 25 -17 41q-2 11 -2 24q0 42 19 107 q69 235 145 381q15 27 33 27q31 4 55 51q58 114 80 147q57 98 133 152q51 35 94 35q2 0 4 -1q44 -1 97 -38q9 -7 35.5 -27t38 -30t29 -28.5t24.5 -37t8 -39.5q2 -37 2 -71q0 -123 -20 -220q-58 -263 -201 -472t-324 -343q-8 -5 -14.5 -13t-16.5 -21t-18 -23q17 2 34 6t19 4 h23q12 0 12 -4q8 -20 28 -26.5t43 -10.5t34 -18q7 -10 21 -28t18 -23q-2 -13 -10 -21.5t-12.5 -10.5t-16.5 -5q-105 -29 -201 -82.5t-213 -134.5q-115 -74 -172 -142q-8 6 -20.5 18t-16.5 15q-11 -9 -21 -11t-19 2.5t-15 9.5t-15 15q-25 22 -14 56q1 7 4.5 14.5t10 17.5 t8.5 13q3 5 9 13.5t10 15.5t5 12q5 33 43 53q34 25 82 51q19 11 68 39q-22 6 -54.5 18.5t-59 20t-50.5 6.5q-67 0 -113 70q-58 86 -61 184zM94 382q0 -65 25 -140q-5 80 -5 123q0 18 1 30q0 44 8 142q-29 -88 -29 -155z" />
<glyph unicode="R" horiz-adv-x="1239" d="M-63 204q-1 6 0.5 18.5t2 16.5t3 19t2.5 16q27 126 53 224q137 493 334 852q45 84 114 184q24 35 41.5 40t59.5 -9q35 -10 102 -33q7 -2 21 -16q-97 -133 -172 -285q57 3 90 67q12 20 38 67.5t40 70.5q2 3 7.5 13t8.5 14.5t9.5 11.5t14 12t17.5 8q2 -7 2 -15 q0 -28 -19 -64q-24 -46 -24 -68q4 -3 8 -4t7.5 -1t8 2.5t6.5 3.5t7 4.5t6 4.5q185 85 305 98q25 3 48 3q82 0 151 -40q89 -47 129 -92q57 -67 64 -143q1 -10 1 -20q0 -66 -41 -130q-73 -103 -178 -188q-110 -90 -330 -207q-252 -125 -425 -170q-5 -1 -13.5 -6t-13.5 -6 q37 -78 211 -219q136 -110 270 -132q-40 -58 -98 -71q-36 -8 -70 -8q-68 0 -129 32q-133 73 -293 226q-8 8 -23.5 20.5t-21.5 18.5q-3 -8 -10.5 -20t-9.5 -19q-11 -50 -34 -149.5t-34 -149.5q-6 -22 -6 -45q0 -11 2 -21q4 -34 27 -65q-9 -1 -24 -6.5t-19 -4.5q-29 11 -45 27 q-17 19 -17 68q0 79 35 227q1 5 53 180q1 3 4 12.5t4 13.5t3 12.5t2.5 13.5t1 12.5t-0.5 13.5t-2.5 13t-4.5 14q0 1 -1 25.5t-16 39.5q-36 -67 -72 -209q-32 -110 -57 -237q-10 -52 -10 -95q0 -57 18 -96q-10 -3 -10 -2q-56 20 -68 36.5t-12 74.5v55q5 28 3 58t-19 53 q-4 8 -7 16t-3.5 18t-1.5 16zM217 614q74 8 96 70q13 30 36 87.5t32 78.5q26 72 61 151q6 15 25 74q-63 -17 -100 -88q-144 -337 -144 -338q-3 -4 -6 -35zM342 535q26 5 27 6q230 103 286 131q127 59 181 106q1 1 6 5t5.5 4.5l5 5t4 5.5t3 6t1.5 7t-1 8q40 3 66 22t59 68 q-99 -75 -121 -92q-50 -20 -65 -29q-219 -124 -371 -188q-62 -21 -82 -31q-24 -16 -4 -34zM387 487q87 4 274.5 88t274.5 156q-34 -4 -37 -6q-48 -14 -267.5 -115.5t-244.5 -122.5zM387 672q37 13 49 18q245 108 430 244q165 120 264 235q25 31 34 43t24 40.5t22 56.5 q-39 8 -53 6q-25 -3 -94 -21q-20 -7 -97.5 -35t-121.5 -42q-49 -16 -102 -44.5t-86 -50t-91 -61.5q-30 -30 -45 -55q-16 -27 -30 -54.5t-30 -64t-23 -54t-26.5 -66.5t-23.5 -58v-37zM590 1159q7 -10 8 -10l6 -2q5 3 63 46.5t87 66.5l20 20q6 0 2 4q-2 2 -4 6 q-37 -12 -91 -43.5t-75 -52.5q-4 -6 -8.5 -18.5t-7.5 -16.5z" />
<glyph unicode="S" horiz-adv-x="1138" d="M-96 39q18 6 53.5 16.5t52.5 16.5q9 3 29.5 8t30.5 8q61 25 225 98q110 43 205 111t194 162q50 47 60 94q-14 4 -33 4q-27 0 -64 -8q-154 -37 -286 -74q-52 -18 -85 -18q-14 0 -24 3q-36 10 -65 68q-12 33 -43 29q-6 6 -45 37.5t-54 52.5q-21 28 -21 65q0 22 7 46 q16 44 35 80q40 61 96 137q242 285 549 498q62 46 151 86q37 17 55 19t33 -4.5t52 -31.5q2 -2 5.5 -6t7 -7.5t7.5 -6.5q13 -21 45 -27q45 -9 55 -34.5t-18 -57.5q-34 -35 -78 -72q-189 -174 -366 -342v31q2 5 9.5 16.5t10.5 18.5q75 101 168 194q55 58 113 99q11 8 8 26 q-29 -10 -37 -16q-151 -86 -264 -242q-3 -5 -18 -24t-17 -31q-1 -6 -7 -12.5t-10.5 -11t-4.5 -11t8 -14.5q-3 -1 -12 -7t-15 -6q-5 0 -17.5 4.5t-17.5 4.5q-75 -69 -153.5 -168t-91.5 -144q16 3 79 14.5t97 16.5q33 3 103 10.5t106 10.5q7 0 15 1q102 0 198 -65 q50 -33 61 -111q4 -23 4 -46q0 -89 -57 -189q-1 -1 -3.5 -5t-3.5 -5.5t-3.5 -5t-4 -5.5t-4 -4.5t-5 -4t-5.5 -3.5t-6 -3t-6.5 -2t-7.5 -1q-7 -1 -14 -5t-16.5 -12t-12.5 -10q-248 -214 -574 -358q-14 -6 -96 -27q-14 -5 -39 -11t-35 -9q-25 -8 -44 -8q-11 0 -20 3 q-24 7 -44 38q-3 5 -11.5 15.5t-13.5 16.5q4 4 9.5 11t8.5 10q-3 16 -21 28t-34.5 25t-17.5 33zM262 530q21 9 74.5 31t81.5 35q-4 4 -6 8q-18 -5 -142 -37q-26 -9 -8 -37zM559 1143q29 -6 43 6l135 135q3 3 15 12.5t17 14.5t10.5 15t6.5 20q-160 -118 -227 -203z" />
<glyph unicode="T" horiz-adv-x="638" d="M-121 -238v10q0 32 4 126q0 3 11 47q4 32 21.5 119.5t18.5 138.5q2 36 11.5 78.5t18.5 71t26 77.5t24 70q31 96 94 275.5t72 205.5q26 104 114.5 293.5t102.5 224.5q1 3 0.5 4.5l-2 6t-2.5 8.5q-10 1 -22 1q-44 0 -109 -12q-22 -4 -40 -4q-38 -1 -64 15q-38 22 -68 92 q35 24 113 43t110 33q-17 6 -40 6q-25 0 -55 -8q-37 -8 -62 -8q-15 0 -25 3q6 9 15.5 15.5t15.5 9.5t19.5 7.5t17.5 6.5q159 56 340 78q115 16 266 18q41 0 80 1q103 0 186 -3q59 0 141 -20q-3 -3 -6 -6.5t-4 -5.5t-2 -2q-53 2 -118 2h-45q-92 -1 -163 -11q-32 -5 -45 -2 q-13 1 -26 1q-30 0 -62 -4q-46 -4 -104.5 -13t-89.5 -12q1 -6 3 -10t4 -6.5t6 -3.5t5.5 -1h6.5h6q41 2 181.5 13.5t215.5 13.5q59 3 71 3q2 0 6 -1q16 1 66 -1q60 -2 70 -3q110 -3 131 -94q6 -19 10 -25q-15 0 -45 1.5t-51.5 1t-40.5 -4.5q-171 -42 -363 -66 q-36 -6 -56.5 -19.5t-35.5 -41.5q-118 -225 -241 -547q-122 -320 -338 -1018q-57 -182 -80 -182q-2 0 -3 1q-14 8 -14 125v16v22q0 5 -3 3t-6 -1.5t-3 8.5q23 77 37 146q0 2 -1 6.5t-3 13t-4 18.5q-6 -18 -15 -42.5t-14.5 -42.5t-9.5 -33q-6 -18 -6 -31q0 -22 16 -35 q-13 2 -18 -1.5t-8 -16.5q-18 -92 -18 -148q0 -22 3 -39q-23 -32 -54 -32q-15 0 -32 8q-43 22 -43 69zM455 1210q11 23 34 64t31 57q0 1 -10 21q-52 -61 -55 -142z" />
<glyph unicode="U" horiz-adv-x="1146" d="M-2 250q-13 79 -13 170q0 319 160 794q30 84 95 218q28 70 86 75q13 0 26 21q19 30 48.5 34t56.5 -6q86 -18 123 -69q-62 -116 -70 -129q-222 -404 -279 -846q-8 -63 -8 -107q0 -97 42 -97q6 0 12 2q69 20 231 255q244 365 356 613q85 177 211 360q56 -12 80 -22 q35 -15 47 -47q5 -14 6 -30q0 -19 -8 -38q-30 -68 -57 -121q-54 -95 -106 -217.5t-80 -198.5t-80 -229q-50 -143 -132 -430q-17 -52 -30 -170q-2 -16 -2 -31q0 -57 30 -100q-31 -39 -80 -39q-20 0 -42 6q-25 5 -40.5 24t-29.5 48q-23 50 -23 118q0 22 2 45q11 75 27 158 q0 25 2 41q-59 -67 -123.5 -123t-136 -93t-131.5 -41h-8q-54 0 -98 46q-46 50 -64 156zM897 575q37 147 147 411t213 480q12 -4 30.5 -13.5t27.5 -12.5q-5 -15 -38 -93t-68 -160t-38 -89q-10 -23 -157 -353q-13 -40 -29 -49q-20 -14 -34.5 -33t-29.5 -47t-24 -41z" />
<glyph unicode="V" horiz-adv-x="989" d="M-33 47q7 162 19 262q59 437 190 813q19 49 59.5 180t61.5 185q8 22 28.5 26t42.5 6t33 19q14 9 29 4q46 -9 57 -14q36 -18 44 -30.5t1 -45.5q-8 -44 -26.5 -123.5t-24.5 -105.5q-142 -579 -213 -873q-1 -3 -3.5 -15.5t-3 -17.5t2 -14.5t8.5 -17.5q22 25 25 37 q70 124 123 227q24 48 29 67q37 118 129 287q114 216 296 483q16 23 45 70.5t44 71.5q5 5 13 17.5t13 17.5q31 45 65 55q12 4 25 4q27 0 62 -14q5 -3 12.5 -9t11.5 -8q45 24 85 24h9q44 -3 99 -38q-4 -6 -17 -27.5t-22 -31.5q-165 -210 -201 -258q-6 -8 -37.5 -49.5 t-40.5 -53.5t-36.5 -48.5t-39.5 -53.5t-35.5 -50t-38.5 -55t-34 -50.5t-35 -55.5q-20 -32 -56 -90t-66.5 -106.5t-57.5 -90.5q-1 -2 -4.5 -8.5t-6 -10t-6.5 -8t-8 -6.5q-12 -6 -22.5 -14.5t-17.5 -15.5t-15 -19.5t-12 -19t-12 -21.5t-11 -20q-20 -38 -66 -122.5t-69 -129.5 q-10 -12 -14 -33q-2 -8 -3 -22t-3 -19q-11 -29 -34 -92t-36 -98q-3 -1 -46.5 -14t-66.5 -17q-9 -1 -17 -1q-27 0 -47 12q-28 16 -38 50q-11 39 -14 82v27q0 134 34 350q5 41 52 324q2 10 2 49q-10 -17 -17.5 -36t-11 -31t-8 -33t-6.5 -29q-6 -23 -16.5 -65.5t-16.5 -65.5 q-5 -21 -15.5 -63.5t-15.5 -63.5q-4 -20 -30 -121q-4 -22 -10.5 -66.5t-10.5 -68.5q-8 -84 -31 -123q-5 44 -4 53zM205 -43q0 -6 1.5 -11t2.5 -8.5t4 -7t4.5 -6t6 -5t6 -3.5t8 -3t7.5 -2.5t8.5 -2.5t8.5 -2q3 11 8 28.5t6 22.5q0 17 -2 25q-2 -1 -12.5 -9t-17.5 -10 q-15 -6 -39 -6z" />
<glyph unicode="W" horiz-adv-x="1384" d="M-88 90q1 5 43 176q6 28 6 47q0 16 -4 25q-3 5 -4.5 9.5t-3 8.5t-2 9.5t-0.5 9t0.5 9.5t1 9t2 9.5t2 8.5l2.5 10t2 9q73 263 236 641q73 170 133 281q24 46 129 209q2 2 6 7t5.5 7t6.5 6.5t8.5 4.5t11 2t13.5 -1q1 -3 5 -17t7 -20q4 -6 9.5 -12t13 -12.5t10.5 -9.5 q30 13 39 20q13 -9 10 -12q-2 -13 -8 -38t-8 -36q7 5 37 16q-8 -29 -33 -73t-29 -52q-45 -85 -65 -129q-10 -22 -31 -67t-31 -68q-45 -113 -53 -135q-41 -99 -53 -133q-3 -9 -11 -32t-12.5 -37t-10 -37t-7.5 -44q9 9 22.5 21t18.5 18q42 45 126 136.5t126 136.5 q7 8 23.5 20.5t23.5 20.5q4 4 18.5 14.5t22 19t10.5 17.5q8 27 25.5 44t48.5 34.5t41 25.5q19 14 41 14q20 0 42 -12q63 -31 84 -65q-11 -26 -21.5 -53t-19.5 -57t-15.5 -53t-14.5 -58t-12 -53.5t-11.5 -58.5t-10 -54t-10 -58t-9.5 -55q-7 -42 -17 -124t-12 -95 q-1 -1 -1 -41.5t1 -42.5q38 15 51 59q49 172 184 437q116 231 381 653q16 29 41 57q4 7 21 15q35 -6 91.5 -28.5t78.5 -47.5q-2 -3 -7.5 -17.5t-11.5 -21.5q-12 -17 -42 -66t-54.5 -79.5t-56.5 -53.5q-57 -104 -88 -168q-14 -18 -4 -39q6 -14 7.5 -27t-4 -28.5t-9 -23 t-13.5 -25.5q-160 -271 -299 -657q-31 -84 -113 -281q-8 -22 -40.5 -22t-88.5 22q-2 1 -8 5t-12 5h-21q-2 -20 -10 -55q-28 -6 -50 -6q-34 0 -54 14q-34 23 -39 86q-1 16 0 45.5t0 42.5q-1 21 -7 60t-7 51q-1 15 -3.5 43t-3.5 43q-2 9 -2 31t-4 32q-10 28 -10 71q0 38 8 87 q18 110 33 186q1 6 1.5 13t1 18.5t1.5 20.5q-7 -6 -24 -20t-23 -21q-110 -124 -165.5 -188t-140 -174t-143.5 -206q-23 -36 -45.5 -54t-58.5 -17q-1 -8 -12 -82q-20 -8 -27 -8q-68 0 -86 21q-11 13 -11 41q0 20 5 46z" />
<glyph unicode="X" horiz-adv-x="915" d="M-182 55q18 74 98 203q9 15 58 101.5t94.5 165.5t60.5 100q91 128 123 166q19 23 23 45t1 57q-32 188 -32 428q0 80 4 166q0 7 1 15t2.5 17.5t2.5 14.5q29 3 44.5 4t41 -7t39 -13.5t37.5 -16.5q9 -6 18 -21t8 -24q-5 -17 -5.5 -38t2 -36t6.5 -38.5t6 -36.5q5 -58 26 -205 q1 -7 7 -25t10 -33q11 36 11 70q0 30 -6 66q-6 40 -7 51q-1 8 -5 55.5t-3.5 56t2.5 56.5q12 -37 12 -43q7 -40 21 -116.5t16 -86.5q1 -7 9 -19.5t11 -17.5q13 12 32 31.5t29 28.5q74 68 299 270q43 34 86 59q34 21 50.5 17.5t52.5 -39.5q-17 -14 -65.5 -51.5t-73.5 -59.5 q-89 -69 -138 -135q12 5 24.5 11t19.5 9t12 3q4 0 9 -4t10.5 -10t8.5 -9q-6 -8 -42 -60t-54 -77q-5 -6 -13 -12t-18 -12t-14 -9q-17 -11 -18 -14q-9 -32 -28 -59t-49 -58t-42 -47q-34 -40 -34 -84q0 -17 5 -33q13 -48 34.5 -144.5t33.5 -142.5q65 -249 141 -358 q-7 -4 -12.5 -5t-11 3t-7 5.5t-6.5 8.5q-10 15 -37 60q-55 103 -133 389q-1 3 -41 178q-33 0 -24 -33q92 -373 159 -522q10 -22 34 -58t32 -51q-38 -30 -58 -30h-4q-20 4 -83 61q-23 0 -37 -2q-12 -2 -23 -2q-56 0 -88 59q-38 83 -76 193q-23 55 -39 119q-20 -7 -61 -67 t-102.5 -162.5t-85.5 -139.5q-21 -29 -58 -93t-43 -73q-34 0 -41 4q-64 49 -139 72q-1 0 -10 14z" />
<glyph unicode="Y" horiz-adv-x="968" d="M-55 492q73 246 106 335q122 335 311 680q7 14 37 64q93 -3 144 -60q4 -8 0 -26.5t-6 -25t-9.5 -23.5t-9.5 -23q-86 -192 -213 -485q-4 -12 -12.5 -37t-13.5 -41q8 1 14 3t11 6.5t7 6t7 8.5l6 7q20 14 36 37q6 6 18 18.5t17 17.5q27 27 39 41q21 18 43 43q30 30 39 35 q6 8 19.5 22t17.5 19q6 4 12.5 10.5t13.5 14.5t11 12q7 6 19.5 18.5t19.5 18.5q12 14 37 39q25 30 34 39q6 5 12.5 11.5t13.5 14t11 11.5q7 8 20.5 23.5t20.5 23.5q18 15 35 39q5 5 16.5 18.5t18.5 19.5q13 21 33 41q4 6 10.5 12.5t15.5 14.5t15 14q15 -3 41.5 -10t40.5 -10 q8 -3 17 -11t9 -12q1 -13 5.5 -23.5t15 -18t16.5 -11.5t22 -10.5t19 -7.5q1 -6 1.5 -12t-1.5 -12t-3 -10t-4.5 -10.5t-4.5 -9t-5.5 -10t-5.5 -8.5q-70 -135 -206 -401q-35 -68 -147 -285.5t-173 -337.5q-138 -278 -182 -373q-15 -35 -43.5 -104.5t-44.5 -104.5 q-11 -25 -21 -43q-12 0 -32.5 -1t-30.5 -1q-35 1 -42.5 7t-21.5 42q-2 11 -18 31q-24 29 -24 63q0 12 3 25q55 166 72 207q123 283 215 488q22 53 64 135q-9 -3 -17 -8t-13 -8t-11 -9.5t-8 -9t-8 -10.5t-7 -9q-8 -10 -65 -79.5t-86 -106.5q-28 -41 -73 -41q-13 0 -28 4 q-23 6 -33 7.5t-26.5 0.5t-30.5 -8q-12 -2 -33 2q-52 9 -68 30q-8 11 -8 29q0 16 7 38z" />
<glyph unicode="Z" horiz-adv-x="1234" d="M-189.5 -63q-0.5 15 21.5 28q42 27 125 72q0 2 -8 33q-7 16 -7 30q0 28 29 45q57 38 90 50q60 27 101 94q14 19 37 55.5t43.5 65t42.5 51.5q47 54 149 175.5t158 184.5q34 38 162 166q86 86 129 127l5 11q5 11 11 22q-11 -5 -24.5 -11t-23 -10.5t-17.5 -9.5 q-86 -47 -244.5 -135.5t-220.5 -122.5q-5 -2 -39 -21t-51 -26q-23 -10 -48 -6q-11 0 -16 14t6 21q10 8 41 26q154 90 219 129q4 1 25 25q-12 -2 -25.5 -3.5t-17.5 -2.5q-136 -58 -238 -92q-19 -8 -38 -8q-31 0 -61 20q-50 32 -60 86q0 5 8 37q81 40 305 145q61 29 286.5 135 t348.5 162q36 17 221 84q38 14 61 14q9 -1 16 -3q24 -8 64 -60q19 -25 25 -57q12 -58 16 -93q-11 -9 -33 -30.5t-34 -32.5q-225 -203 -246 -223q-37 -33 -39 -64q-3 -11 -9.5 -21.5t-20 -25.5t-15.5 -18q-380 -460 -457 -551q-34 -44 -55 -78q39 0 55 2q221 32 283 43 q13 2 24 2q45 0 72 -37q9 -11 30.5 -27.5t28.5 -23.5q10 -10 14 -23t-3 -20q-16 -7 -18.5 -17.5t1 -26t2.5 -22.5q-21 3 -44.5 3t-41.5 -1t-44.5 -6t-40.5 -7.5t-44 -9.5t-41 -9q-332 -69 -751 -205q-87 -30 -154 -61q-25 28 -25.5 43zM242 104q15 -6 22 -6q56 13 177 41.5 t186 42.5v49l-35 5q-30 -10 -124.5 -41t-145.5 -50q-12 -4 -24 -9.5t-30.5 -16.5t-25.5 -15z" />
<glyph unicode="\" horiz-adv-x="952" d="M9 1597.5q2 18.5 28 38.5q2 1 8 6.5t8 6.5q26 17 53 -21q0 -1 19 -29q28 25 49 37q17 14 41 -18q23 -35 51 -117q55 -188 76 -256q94 -263 109 -377q14 -39 44 -102.5t46 -120.5q14 -52 53.5 -200t60.5 -228q33 -100 54 -240q1 -6 -0.5 -23.5t0.5 -27.5q-8 0 -25 -1.5 t-26.5 -1.5t-23.5 6t-26 18q-2 3 -6 -6q-2 -5 -5 -17q-7 -25 -11 -28q-6 0 -13 -3.5t-14 -3t-18 8.5q-62 215 -88 335q-179 622 -322 1029q-46 142 -108 272q-16 45 -14 63.5zM365 709q9 -53 78.5 -300t86.5 -282q-1 32 -64.5 270.5t-78.5 282.5q-1 3 -3.5 6.5t-8 10 t-10.5 12.5z" />
<glyph unicode="_" horiz-adv-x="1236" d="M-76 2q3 14 11.5 22t16.5 10t23 3q135 6 142 6q73 -1 219 -2t219 -2q96 -3 197 -19q88 -10 137 -59q7 -12 51 -31q22 -9 32 -20.5t9 -34.5q-56 14 -123 21t-114.5 8t-127 1t-118.5 1q-73 2 -222.5 5t-222.5 5q-85 5 -129 86z" />
<glyph unicode="a" horiz-adv-x="1054" d="M-177 -42.5q-7 18.5 3 38.5q2 19 18 59q12 27 103 262q-44 17 -68 31q-54 31 -54 59q0 24 38 54q36 36 98 63q48 22 78 80q110 233 264 469q29 43 85 122t63 89q3 6 13.5 16.5t12.5 16.5q3 14 8.5 26t15.5 24t15.5 19.5t21.5 20t20.5 16t24.5 17.5t23 16q20 14 54.5 45 t44.5 39q14 10 39.5 31.5t39.5 30.5q46 29 90 29q56 0 111 -46q49 -39 68 -49q55 -34 55 -88v-6q-3 -12 -7 -38t-7 -38q-74 -229 -95 -289q-22 -55 -66 -162.5t-65 -162.5q-5 -8 -10 -24.5t-6 -20.5q7 -13 23.5 -39t21.5 -35q-58 -4 -72 -4q-43 -72 -110.5 -263.5 t-114.5 -371.5q-9 -1 -19 -1q-47 0 -120 30q-35 13 -35 44q0 8 2 17q15 82 35 137q54 175 94 252q5 11 9.5 25t10 35.5t9.5 35.5q-14 -3 -33.5 -5.5t-26.5 -4.5q-41 -13 -131 -44t-139 -46q-28 -8 -45.5 -25t-32.5 -45q-33 -75 -98 -223t-98 -223q-17 -45 -54 -117 q-2 -2 -5.5 -6.5t-6.5 -7.5t-6 -4q-19 -9 -36 0t-17 26q0 19 6 37q7 18 10 37q-12 4 -20 12q-23 9 -30 27.5zM338 664q24 3 39 6q26 7 82 23.5t86 23.5q18 4 45 11q55 12 70 26.5t50 90.5q3 7 5 11t4 13t2 10q76 173 106 247q10 28 26 79t24 73q-5 6 -9 16q-30 -22 -49 -34 q4 37 2 57q-19 -7 -24 -12q-258 -282 -455 -611q-4 -4 -4 -30z" />
<glyph unicode="b" horiz-adv-x="1153" d="M-55 10q-11 60 -11 124q0 97 25 204q92 461 258 866q4 13 10.5 42.5t10.5 45.5q2 2 15 16.5t21 24.5q5 7 27 56q-4 4 -13.5 11t-13.5 13q5 4 23.5 18t26.5 21t21 20.5t20.5 27.5t11.5 30q3 12 29 22q29 8 86 19v-8l-9 -2v-19q86 26 161 35q36 4 72 5q40 0 82 -6 q79 -10 146 -57t115 -130q4 -12 10 -21q44 -53 44 -113q0 -54 -36 -114q-71 -119 -219 -217q-10 -7 -158 -99q-1 0 -26 -22q139 -23 182 -40q79 -31 126 -112q16 -29 32 -67q11 -27 11 -52q0 -41 -30 -77q-4 -5 -16 -18.5t-18.5 -20t-17.5 -16.5t-21 -17q-61 -50 -136 -94 q-334 -188 -591 -246q-5 -1 -13 -5.5t-14 -6.5q-12 -30 -21 -89.5t-12 -70.5q-11 -2 -16.5 2.5t-6.5 9.5t-1 13v77q0 8 -2 26t-3 26q-8 -7 -13.5 -13.5t-8.5 -16t-3.5 -12.5t-1.5 -15l-1 -13q-1 -7 -4 -30t-4 -38q-15 -6 -33 -18q-5 -1 -15.5 -3t-15.5 -3q-12 16 -12 20 q-6 16 -6 49q0 32 -9 51.5t-34 26.5zM223 279q-2 -8 6 -39q69 30 150 63q211 91 383 221q48 32 61.5 59.5t-4.5 45t-52 28.5t-81 15q-49 5 -96 5q-115 0 -219 -28q-53 -12 -66 -63q-15 -68 -82 -307zM397 885q88 32 207 104q169 100 256 203q56 67 56 115q0 49 -58 77 q-71 35 -231 35q-68 -10 -84 -69q-13 -40 -64.5 -190t-77.5 -232q0 -2 -4 -43zM598 1454q184 4 276 8q-54 28 -122 32q-21 1 -39 1q-44 0 -80 -6q-42 -5 -35 -35z" />
<glyph unicode="c" horiz-adv-x="974" d="M-35 389v28q0 208 84 421q91 215 193 364t254 260q56 42 130 54q25 4 49 4q47 0 89 -17q111 -52 184 -137q49 -59 49 -136q0 -32 -8 -67q-44 -142 -166 -248q-36 -31 -84 -31h-3q-50 1 -91 34q-14 12 -16 28.5t10 30.5q23 19 39.5 45.5t33.5 63.5t27 55q29 41 45 139 q1 18 1 34t-6.5 32t-20.5 28l-14 -2t-12.5 -2.5t-12.5 -4.5t-11.5 -4.5t-12 -6l-10 -6t-11 -7.5t-10.5 -7t-11 -7.5t-10 -7.5q-97 -73 -178 -184q-244 -334 -281 -738q-4 -41 -4 -78q0 -104 29 -182q4 -10 9 -19.5t11.5 -19.5t8.5 -14h3q63 0 127 40t113 104t84.5 130 t55.5 127q4 10 18 31q41 0 53 -6q71 -18 99 -40q17 -13 17 -35q0 -15 -7 -34q-85 -238 -219 -344q-56 -47 -132 -65q-49 -12 -98 -12q-26 0 -54 4q-76 10 -146 43q-107 53 -146 142t-41 220zM12 317.5q0 -19.5 2 -31.5t4.5 -29t8 -32t12.5 -30q2 3 4.5 7t4 6.5t1.5 4.5 q-20 77 -20 162q0 36 4 74q0 3 -3.5 11t-4.5 11q-1 -5 -4 -30.5t-4 -32.5t-3.5 -29t-2 -32t0.5 -29.5z" />
<glyph unicode="d" horiz-adv-x="1017" d="M-94 274q52 210 168 529q108 288 237 530q2 4 8 15.5t9 17t9.5 15t12 14.5t13.5 11.5t18 10.5t22 6q7 1 14.5 8.5t20 24.5t19.5 25q16 -6 129 -56q22 5 72 19t77 20q35 7 70 7q64 -1 129 -25q101 -38 156 -127q48 -80 48 -165q0 -43 -12 -87q-2 -7 -7.5 -25.5t-9 -28.5 t-10 -24.5t-15.5 -26t-21 -20.5q-7 -5 -16 -37q-52 -152 -170 -293q-240 -293 -603 -499q-28 -16 -131 -54q-38 -11 -49 -49q-3 -23 -16 -53q-14 -53 -61 -53q-9 0 -19 2q-7 1 -15 3t-17 5t-15 4q-30 17 -27 45q4 59 10 94q7 25 7 47q0 42 -25 72q-17 22 -17 53q0 21 7 45z M231 381q25 4 27 6q294 220 477 461q86 115 119 223q12 37 17.5 64t3.5 62.5t-17 66.5q-41 22 -86 22q-14 0 -29 -2q-101 -17 -165 -51q-44 -23 -64 -70q-50 -136 -143 -386t-127 -341q-6 -17 -13 -55z" />
<glyph unicode="e" horiz-adv-x="983" d="M-147 -10q-11 16 -11 29q0 16 15 28q8 6 9 7t7.5 6.5t7.5 8.5t4 9t2.5 12t-2.5 14q-3 5 -1 12.5t5 10.5q19 22 29.5 49.5t18 64.5t12.5 54q6 19 16.5 56t16.5 57q-9 6 -26 15.5t-24 14.5q14 39 17 51q224 522 284 660q34 80 99 102q26 11 38.5 36t22.5 67h-49 q-29 -2 -55 24q-24 26 -24 46q0 27 42 44q7 6 29 11q33 9 88.5 24.5t77.5 21.5t63 15.5t70.5 13t73 7.5t96.5 6q8 1 24 2t23 2q9 1 18 1q64 0 99 -56q22 -35 59 -35q13 0 27 4q5 1 10 1q23 0 49 -21q32 -26 35 -54q3 -43 6 -90q-13 -2 -62 -9.5t-75 -13.5q-139 -20 -354 -55 q-9 -1 -27 -6t-27 -6q-44 -9 -63 -49q-20 -42 -62 -118t-51 -93q-2 -3 -10 -35q32 -4 39 -4q44 3 129.5 12t124.5 12q18 2 35.5 2t35.5 -2q46 -3 66 -22t33 -74h-56q14 -43 25 -86q-42 8 -84 8h-7q-39 0 -81 -6q-46 -6 -79 -13t-85 -19t-78 -17q-25 -5 -73.5 -20t-55.5 -17 q-38 -12 -51 -47q-72 -180 -110 -281q-9 -30 -9 -53q0 -28 13 -47q10 -4 27.5 -4t41.5 4q23 4 99.5 20t119.5 23q17 3 37.5 5t44.5 4t37 3q16 2 31 2q100 0 151 -112q-32 -62 -36 -72q-278 -38 -592 -119q-31 -8 -90 -26t-84 -25q-32 -10 -51 -5t-39 30z" />
<glyph unicode="f" horiz-adv-x="884" d="M-80 55q9 49 9 99q0 29 -3 59q-1 12 1 26t4 23t8 27l8 24q7 24 27.5 86t44 131t28.5 86q3 12 10 37t9 37q-40 53 -62 82q3 12 9 20.5t16 14t16 7.5t20.5 5t18.5 4q43 10 59 43q58 140 181 336q1 3 2 11t2 12q-76 6 -103 80q3 30 35 36q38 10 114.5 31t114.5 31 q17 4 52.5 11.5t56.5 12.5q-29 8 -70 8q-38 0 -87 -7q-99 -15 -197 -50q1 5 1 13.5t0.5 13.5t2.5 6q51 30 88 37q189 38 272 47q114 16 252 23h19q40 0 104 -3q80 -4 92 -4q38 0 45 -30q-15 -2 -63 1.5t-60 -7.5q0 -6 1.5 -10t4.5 -6t5 -2.5t6.5 -1.5t5.5 -1q16 -1 47.5 -2 t46.5 -2q41 -3 49 -37q-5 -12 -15 -14.5t-18 0.5t-16 0q-24 -6 -43 -17q2 -11 22.5 -44.5t12.5 -57.5q-10 -10 -14 -6q-58 33 -133 33h-13q-68 0 -237 -13q-36 0 -54 -30q-34 -52 -65 -109q-22 -41 -61 -118.5t-48 -94.5q-6 -10 -13.5 -32.5t-10.5 -30.5q79 0 135 -5 q61 0 94 -2t51 -43q9 -28 -18 -49q-6 -3 -19 -39q-42 -5 -131 -17t-135 -17q-65 -6 -88 -64q-136 -359 -190 -577q-8 -31 -27 -181q-21 -10 -44 -4.5t-36 25.5q-27 39 -84 39q-16 24 -31 45q-15 19 -15 47q0 9 1 18zM-20 119q29 81 65 166q-2 2 -9 5t-9 5q-5 -14 -23 -51.5 t-24 -65.5t0 -59z" />
<glyph unicode="g" horiz-adv-x="1073" d="M4 563q54 289 225 549q69 101 144 188q84 101 186 175q41 21 53 22q17 2 60 21q37 16 63 16h8q9 -1 40 -5.5t42.5 -6.5t37.5 -7t41 -10.5t35 -15t36 -21.5q34 -17 41 -24q23 17 41 39q46 53 85 57h5q38 0 98 -41q-2 -3 -11 -15.5t-13 -19.5q-157 -177 -267 -422 q-1 -2 -26 -75q-3 0 -10 -1.5t-9 -0.5q-68 4 -89 30q-10 13 -10 35q0 20 9 47q39 108 68 211q10 20 10 62q-4 50 -14 73q-122 -38 -245 -149t-212.5 -252.5t-138.5 -305.5q-37 -123 -37 -230q0 -35 4 -68q11 -93 71 -93q53 0 144 74q103 81 217 219q22 27 27 39 q-80 -6 -131 -43q-23 -18 -52.5 -19t-54.5 7q-12 2 -24.5 7.5t-27 14.5t-24.5 13q10 33 17 47q19 48 78 57q46 14 135 40t129 38q34 8 104 29q50 14 71 14h3q20 -2 76 -26q11 -22 20 -31q7 -15 21 -31q-8 -4 -27.5 -13t-30.5 -16q-9 -9 -10 -12q-43 -45 -92.5 -150.5 t-90 -225t-72.5 -233t-46 -188.5q-9 -47 -9 -66q0 -12 3 -13q-23 -9 -43 -9q-18 0 -33 8q-29 17 -29 55v5q1 25 15 104q4 41 4 57v7q-14 -22 -23.5 -48.5t-13 -45.5t-8 -51t-8.5 -50q0 -3 -2 -12t-2.5 -15t0.5 -15t4 -17q-17 -13 -47 -2q-35 19 -37 37q-5 38 0 49 q10 42 33 117.5t30 99.5q5 14 41 115q-12 -5 -41 -15q-32 -19 -86 -45q-52 -24 -106 -24q-23 0 -47 4q-6 0 -18 1t-17 1q-107 10 -160 56.5t-76 131.5q-13 53 -13 110q0 47 9 97zM123 446q-4 -21 -4 -41q0 -55 28 -100q-1 4 -6.5 56t-17.5 85zM457 1266q35 39 118 108.5 t123 112.5q-93 -34 -182 -127q-52 -48 -59 -94zM909 1450q6 -74 17 -137q36 31 36 62q0 36 -53 75z" />
<glyph unicode="h" horiz-adv-x="1337" d="M-113 512v8q1 5 3.5 9t4.5 7t6 6.5t6.5 6t7 5t7 4t8.5 4t7.5 3.5t8 3.5t7.5 2.5q10 6 72 33q22 7 33.5 13t22.5 19.5t15 33.5q2 25 39 32q3 1 9.5 3.5t9.5 3.5q10 4 185 389.5t185 388.5q2 1 9 6q50 38 50 2q0 -22 -16 -70q-31 -89 -106 -265t-128 -298 q-47 -108 -47 -121q0 -2 1 -2h3q39 0 62 52q10 29 30 82t28 75q82 212 125 318q42 114 108 166q0 7 1.5 24t1 26t-5.5 22t-17 22q-3 3 -3 10.5t3 11.5q1 4 3.5 13.5t4 14.5t5 13t7.5 13.5t10 11.5t13 10q72 -33 100 -55q18 -15 18 -49q-3 -42 -18 -86q-165 -443 -211 -568 q-2 -5 -11.5 -23t-12.5 -31t1 -28q2 -1 9 -5.5t12 -4.5q91 13 172 27q35 3 53 41q11 29 33 81.5t27 63.5q173 382 280 608q1 4 3.5 8.5t7.5 10.5t8 10q12 -15 41 -39q15 11 45 37q4 -2 12 -4t12 -4q6 -3 41 -23q37 -21 37 -61q0 -9 -2 -19q-4 -16 -10.5 -44.5t-12.5 -52 t-12 -42.5q-18 -51 -67.5 -194t-77.5 -220q-3 -9 -9 -26t-11.5 -31t-10.5 -27q82 -46 111 -78t51 -102q-16 -13 -38.5 -16.5t-40.5 -1t-40 -0.5q-24 -3 -67.5 -9t-55.5 -8q-3 -8 -16 -39t-19 -49l-198 -528q-26 -78 -90 -147q-7 16 -39 73q-9 -7 -27 -20t-27 -21q-8 0 -12 2 q-69 37 -69 107q0 16 4 33q29 158 39 194q14 50 46 148.5t46 148.5q2 10 7.5 31.5t8.5 32.5q-38 -3 -78 -10.5t-85 -18.5t-70 -16q-15 -6 -29 -27q-1 -1 -14 -27q-228 -530 -242 -563q-30 -62 -79 -62q-19 0 -40 9q-32 14 -32 40q0 8 3 17q11 51 41 127q22 58 75 189.5 t81 203.5q4 7 8 29q-12 4 -23 4q-32 0 -48 -37q-19 -53 -59.5 -159.5t-59.5 -159.5q-10 -27 -58 -189l-12 -36q-34 16 -34 49q0 5 1 10q2 19 11 45q81 210 131 342q21 59 32 96q-10 4 -21 5t-17.5 1t-18 -4t-15 -5t-16.5 -8t-14 -7q-43 -18 -64 -18q-6 -1 -10 1 q-18 8 -43 66z" />
<glyph unicode="i" horiz-adv-x="509" d="M-115 63q0 22 4 76q44 222 179 670q22 84 52.5 170t80.5 211t67 168q10 15 33 61q20 34 57 34q10 0 21 -3q39 -6 94 -28t68 -46q-1 -3 -4.5 -22t-8.5 -29q-28 -97 -87 -281.5t-85 -273.5q-35 -114 -95 -329.5t-68 -245.5q-10 -37 -24.5 -107.5t-21.5 -101.5 q-24 -6 -56 -6q-23 0 -49 3q-64 7 -108 21q-43 11 -49 59z" />
<glyph unicode="j" horiz-adv-x="983" d="M-455 -266q3 6 11.5 10t11.5 2q24 -10 47 -12t46.5 4.5t38.5 12.5t40 18q186 94 348 270q223 243 363 565q9 23 28 65t27 60q12 35 39 39q6 1 12 13.5t8 23.5q27 90 66 252q17 70 35 182q2 14 2 57q-54 0 -62 -2q-26 -3 -72.5 -10t-68.5 -10q-40 -8 -62 2q-17 5 -38 5 q-31 0 -70 -13q-5 -2 -22.5 -8t-26.5 -11q-10 -3 -20 -3q-26 0 -50 20q-19 15 -20.5 37t18.5 36q7 7 24.5 16t20.5 11q45 20 97.5 37t121 36t101.5 29q15 4 48 12.5t51 13.5t44 14t47 18q24 -3 59 12.5t46 17.5q17 3 35.5 8.5t40.5 14t36 12.5q39 12 51 -22q1 -6 9 -12.5 t14 -8.5q53 -17 81.5 -54t55.5 -101q-32 -26 -107 -32.5t-106 -23.5q-10 -13 -10 -37q-51 -360 -119 -604q-89 -342 -299 -639q-206 -291 -524 -417q-51 -21 -158 -37q-16 -2 -31 -2q-64 0 -118 34q-12 8 -37 18.5t-29 12.5q-47 12 -70 45q-8 15 -4 23z" />
<glyph unicode="k" horiz-adv-x="1181" d="M-123 182q90 299 119 389q89 291 272 709q41 98 107 205q24 40 42.5 46.5t59.5 -7.5q12 -3 47 -19q13 12 23 19.5t23.5 13.5t27.5 5t29 -9q-3 -8 -10.5 -25.5t-10.5 -25.5q-3 -10 -10 -30t-10 -30q-6 -15 -76 -223q-1 -2 -2 -7t-2 -7v-9q0 -27 -5 -57q-6 -36 -13.5 -61 t-21.5 -65.5t-20 -61.5q-13 -52 -22 -76q14 -17 29 -2q119 76 256 203q44 44 55 88q13 39 35 59q201 172 381 246q28 12 43 12h8q26 0 39 -1.5t28 -13t19 -34.5q0 -7 16.5 -16.5t16.5 -10.5q-6 -22 -3 -31.5t14.5 -26.5t14.5 -28q-50 -24 -106 -57t-90.5 -56t-100.5 -68.5 t-90 -61.5q-30 -20 -82 -61t-63 -50q-204 -146 -264 -190q-30 -20 -41 -33q20 -100 153 -295q53 -76 199 -260q-5 -10 -27 -43q12 -34 12 -57q0 -14 -4 -24q-11 -28 -61 -52q-22 -11 -33 -4q-14 12 -63 37t-68 53q-72 105 -282 387q-8 10 -21.5 31t-19.5 30 q-8 -5 -14.5 -11.5t-10.5 -15t-6.5 -14t-6 -18t-5.5 -16.5q-37 -110 -136 -424q-18 -62 -49 -191q-6 -30 -17.5 -41t-41.5 -14q-19 -2 -26.5 6.5t-4.5 28.5q4 14 2.5 59t-0.5 59q0 24 4 82q0 5 1 26t1 40q-12 -21 -18.5 -40.5t-10 -42.5t-5.5 -30q-1 -3 -4 -24t-7 -29 q-5 -11 -28 -20q-4 -1 -11.5 5t-9.5 11q-6 22 -2 51q2 25 10 94q-57 19 -57 80q0 20 6 45zM346 571q21 -86 189 -295q2 -1 28 -4q-7 10 -20 35q-23 33 -63 93t-56 83q-11 20 -51 80q-2 2 -12.5 4t-14.5 4zM989 1262l8 -4l6 -3t3 0q88 44 276 142l-4.5 6t-4 4.5l-3.5 3.5 t-2 0q-13 -5 -35.5 -12t-40.5 -13.5t-33 -15.5q-18 -12 -54 -31t-64.5 -37t-51.5 -40z" />
<glyph unicode="l" horiz-adv-x="858" d="M-174 106q24 12 75.5 37t78.5 39q-12 34 -14 67q-1 8 0 16q0 27 6 57q8 40 13.5 58t20.5 66q16 56 86 254q1 4 6.5 23.5t6.5 26.5t0.5 22t-5.5 27q-1 7 1.5 16t8.5 21t7 16q111 316 289 608q1 1 9.5 13.5t14.5 19.5q19 25 41 25q14 0 29 -9q6 -4 21 -13.5t23 -14.5 t21.5 -11t26.5 -10q5 -1 11.5 -6.5t14 -14t11.5 -12.5q-162 -331 -185 -383q-72 -158 -163 -391q-131 -323 -134 -407q16 25 28.5 53t26 61.5t21.5 51.5q6 12 16.5 37t17.5 40.5t19.5 35.5t26.5 34q-7 -46 -46.5 -138t-45.5 -147h31q164 67 342 97q15 4 30 4q39 0 80 -25 q54 -33 82 -108q-43 -14 -96 -29q5 -14 31 -38.5t26 -47.5q-29 -4 -176 -29q-345 -61 -383 -69q-31 -3 -53 -31q-5 1 -22 4t-27 4q-12 -25 -17 -72.5t-8 -58.5q-25 -9 -43 -9q-20 0 -32 10q-24 20 -33 89q-16 10 -33 12q-48 8 -66 66q-10 31 -18 63zM383 709q14 46 35 96 t36.5 80.5t46 87t40.5 76.5q-9 -41 -63.5 -157.5t-94.5 -182.5z" />
<glyph unicode="m" horiz-adv-x="1572" d="M-115 72q10 43 52 180q131 427 313 797q24 49 66 142.5t61 133.5q25 43 26 45h101q2 0 6.5 -1t7.5 -1q13 -2 33.5 -19t30.5 -18q7 -1 23 0.5t28.5 -1t25.5 -11.5q3 -23 3 -56q0 -50 -7 -122q-18 -235 -49 -553v-64q11 2 19 6.5t14 12t9 12t8 14t6 11.5q12 16 157 227 q45 65 104.5 140.5t98.5 120.5t119.5 136t107.5 121q34 39 99.5 105t83.5 86q24 21 100 102q3 0 28.5 -1t33.5 -1.5t27 -3t32.5 -6.5t25.5 -11q34 -15 40.5 -29t-5.5 -48q-19 -48 -60.5 -145.5t-60.5 -145.5q-169 -418 -379 -1043q-83 -248 -139 -422q-2 -9 -7 -23.5 t-8 -26.5t-3 -23q-7 -39 -39 -47q-6 -1 -31.5 -7t-40.5 -6q-19 -2 -115 -2q-8 7 -10 17t-1 15t6 18t5 14q29 104 113 370q169 553 289 881q32 75 53 137q2 4 14 51q-15 -3 -24.5 -9.5t-21 -20t-13.5 -15.5q-20 -25 -139 -168.5t-180 -224.5q-62 -80 -260 -368q-8 -9 -18 -28 t-15 -26q-21 -24 -21 -49q0 -21 15 -43q-34 -7 -41 -6q-10 2 -20 2q-26 0 -56 -14q-36 -20 -65 -20q-57 0 -89 75q-15 36 -18 90q-3 36 -5 77t-4 91.5t-3 77.5q0 27 -17 53q-38 -75 -65 -135q0 45 24 122t27 111q-3 -5 -10 -17t-9 -17q-29 -77 -103.5 -269.5t-113.5 -296.5 q-4 -6 -9.5 -21t-10.5 -24q-40 -53 -90 -53h-4q-31 2 -46.5 20t-9.5 48zM526 387q9 52 9 105t-9 106q-10 -57 -10 -110t10 -101z" />
<glyph unicode="n" horiz-adv-x="1490" d="M-131 20q6 150 47 293q169 659 487 1133q47 68 86 115q34 -5 52 -5q14 0 20 3q19 7 40 7q40 0 83 -26q3 -3 12 -5.5t11 -4.5q11 -7 30 -19.5t24.5 -16.5t16.5 -13t13 -15t7 -15.5t4.5 -21.5t0 -26.5t-1.5 -36.5q-1 -19 -9.5 -158.5t-9.5 -212.5q-1 -38 -1 -76 q0 -247 40 -460q16 -76 49 -191q2 -7 6 -15.5t11.5 -21t11.5 -20.5q4 7 15.5 19t13.5 18q36 73 76 176q86 240 129 381q3 5 7 18.5t7 18.5q18 15 31 38.5t17.5 37.5t13 51.5t10.5 44.5q13 58 51 266q30 180 35 215q3 22 6 65t4 54q10 2 21 2q46 0 114 -29q61 -30 61 -90v-6 q-1 -17 -2 -50.5t-2 -49.5q-15 -240 -82 -453q-71 -267 -147 -506q-65 -210 -121 -305q-53 -89 -141 -111q-29 -7 -57 -7q-56 0 -107 28q-8 3 -23 9.5t-26 10t-23 4.5q-57 3 -100 56q-3 3 -12.5 16t-13 17.5t-11.5 15.5t-12 18.5t-9 17.5t-8 19q-52 101 -71 189 q-57 219 -64 493q1 8 -0.5 27t-1.5 31q-30 -26 -33 -33q-109 -209 -145 -299q-129 -304 -193 -561q-1 -15 -6 -42.5t-6 -41.5q6 -5 17 -16t18 -17q-43 -54 -66 -90q-8 2 -26.5 4t-30 7.5t-20.5 18.5q-18 25 -18 62q0 7 1 14q3 162 45 324q10 52 17 104q-14 -8 -23 -20 t-11 -17.5t-7 -21.5q-11 -41 -37.5 -125t-43.5 -151.5t-22 -131.5q-19 27 -19 74q0 9 1 18zM563 1049q-6 -78 -6 -153q0 -150 25 -288q30 -197 71 -305q3 -7 9 -23t9.5 -24.5t13 -18.5t22.5 -16q-77 193 -105 410q-30 212 -39 418zM932 162q-1 -2 0.5 -4.5t5 -7t4.5 -7.5 q23 28 38.5 58t35 83t24.5 64q2 2 0.5 14.5t-0.5 20.5q-26 -30 -64.5 -111t-43.5 -110z" />
<glyph unicode="o" horiz-adv-x="970" d="M-16 372q0 37 2 79q10 146 51 262q0 4 6 22q8 75 38 159.5t51 125.5t73 139q104 191 299 307q78 42 176 42q12 0 25 -1q58 -6 102 -37q9 -9 24 -30q-31 -7 -57 -19q0 -7 6 -10q9 -5 30.5 -12.5t25.5 -9.5q99 -58 116 -170q4 -34 4 -74q0 -73 -14 -164q-98 -488 -399 -854 q-46 -49 -107 -90q-46 -35 -109 -35q-22 0 -46 4q-22 7 -91 17q-25 6 -53 18q-17 4 -86 35q-6 20 -21.5 64.5t-21.5 66.5q-12 40 -18 84q-5 40 -6 75v6zM102 363q-2 -27 -3 -52q0 -49 10 -88q0 -2 18 -6q1 10 12 295q-29 -68 -37 -149zM258 219q1 -6 7 -18.5t9 -20.5 q69 60 115 117q106 143 238 377q2 2 4.5 9.5t6 9t15.5 -2.5q-4 -42 -34 -108.5t-35 -81.5q-7 -19 -41.5 -85.5t-44.5 -113.5q26 12 46 33t26 32t20 40q34 64 127 251q5 11 21 39.5t22 46.5q34 117 55 207q31 112 31 212q0 37 -4 73q-7 74 -54 104q-78 -12 -151 -96 q-81 -100 -129 -180q-132 -222 -234 -551q-24 -75 -24 -173q0 -56 8 -120z" />
<glyph unicode="p" horiz-adv-x="1224" d="M-123 -4q15 50 40.5 148t39.5 145q2 8 9.5 35t10 38.5t7.5 33t6.5 39.5t1.5 36q2 12 14 31.5t14 27.5q27 74 86 263q11 31 31.5 96t38 113.5t35.5 91.5q9 21 22.5 61t27.5 72t32 57q4 5 8 33q-46 5 -59 13t-47 52q4 2 11.5 10.5t14.5 10.5q21 11 10 24.5t-23.5 21.5 t11.5 19q95 34 275 48q92 6 168 6q74 0 133 -6q222 -25 370 -183q10 -12 30 -33t30 -32q58 -64 58 -148q0 -29 -7 -61q-20 -89 -80 -164q-136 -189 -371 -324q-146 -82 -438 -180q-22 -6 -102 -35q-38 -95 -41 -106q-112 -361 -152 -494q-10 -35 -14 -47q-9 2 -23.5 8 t-17.5 7q-5 14 -5 34q0 24 7 56q8 38 23.5 113.5t23.5 113.5q0 1 -4 41q-15 -18 -22.5 -37.5t-13 -48.5t-7.5 -35q-7 -29 -17 -44.5t-32 -22.5q-19 -2 -33 -39q-3 -12 -11.5 -49t-13.5 -58q-2 -3 -10 -31q-19 28 -20 58v8q0 27 6 56q6 34 4 55q-39 21 -39 68q0 16 4 34z M322 477q4 1 14 2t13.5 2t11.5 2.5t11.5 3.5t9 5t8 6.5t5.5 9t4 12.5q1 4 25 23q1 1 18.5 7t24.5 11q169 101 285 201q107 98 137 119q66 45 125 114t80 133q4 8 5 19t1.5 26t1.5 21q0 29 -29 29q-2 -2 -5 -10t-5 -11q-5 -14 -11 -28t-11 -24t-15.5 -25.5t-14.5 -22.5 t-17 -24t-16 -21t-19 -23.5t-17 -21.5q-190 -227 -506 -373q-44 -20 -69.5 -48t-32.5 -73q-6 -13 -12 -41zM383 668.5q0 -5.5 1 -14.5t1 -15q17 6 35.5 14t31.5 14t32.5 16.5t28 15.5t30.5 17.5t28 16.5q224 130 365 324q27 35 82 143q5 11 16 72q1 5 1 10q0 29 -29 43 q-60 25 -91 27q-62 5 -116 5q-108 0 -183 -20q-9 -25 -23 -68t-26 -78t-24 -65q-152 -432 -158 -448q-2 -4 -2 -9.5zM674 1430q8 -2 31 -8t35.5 -8t32 -4.5t37.5 -1t36 6.5q-61 20 -117 20q-28 0 -55 -5z" />
<glyph unicode="q" horiz-adv-x="1128" d="M-23 213q-3 33 -3 68q0 108 26 237q48 232 197 545q98 205 198 338q14 19 32.5 40t31.5 34t37 38t34 35q29 32 57 32l17 -3q54 -16 62 -61q0 -3 4 -7.5t6 -7.5q13 4 43 8q-181 -192 -320 -512q-130 -300 -176 -575q-14 -105 -14 -178q0 -48 6 -82q10 -53 33 -84 q19 7 36 15.5t35 22t28 21.5t30.5 26t25.5 23q4 13 4 37q0 14 -1 31q-1 13 -1 24q0 27 7 39q16 9 36 15t32.5 7.5t38 2.5t34.5 2q5 5 14.5 15.5t14.5 15.5q257 330 376 704q37 140 41 211q1 8 1 16q0 30 -13 46q-25 -7 -63 -45q-55 -55 -90 -103q-161 -211 -279 -471 q-23 -52 -41 -112q-10 -43 -10 -58t10 -53q-8 -1 -23.5 -3t-23.5 -3q-13 -2 -25 -2q-51 0 -84 30q-41 37 -41 104q0 72 39 152q100 229 162 340q89 144 156 213q62 58 108 95q55 42 115 42q54 0 111 -34q7 -3 22.5 -8.5t22.5 -8.5q115 -34 121 -147q2 -22 2 -46 q0 -74 -23 -165q-107 -366 -319 -670q-27 -37 -57 -74t-73 -88t-61 -73q-1 -1 -7 -9t-11 -12q2 -14 4.5 -27t7 -28t7 -25t9 -26.5t9 -23.5t11 -25.5t10 -23t11.5 -25.5t11 -23q24 -66 53 -111.5t78 -76.5q-55 -48 -107 -48q-34 0 -67 21q-64 41 -95 94q-17 30 -73 144 q-6 11 -16.5 33t-16.5 34q-2 0 -70 -18q-90 -22 -158 -22q-33 0 -61 5q-87 15 -147 101q-42 62 -48 141zM164 127q1 -4 18 -27q-7 47 -8 99q-1 26 -1 55t1 61v65v30q-21 -67 -21 -151q0 -62 11 -132zM201 575h14q1 4 8.5 31t12.5 41q14 40 14 49.5t-12 26.5 q-4 -15 -15.5 -46.5t-17 -55t-4.5 -46.5zM293 860q31 18 35 27q3 11 18 41.5t14 50.5q13 10 20 25.5t8.5 26.5t2.5 34t2 31q-74 -128 -100 -236zM459 563q0 -2 2 -3t6.5 -2.5l7.5 -2.5q1 13 5.5 39t4.5 39q-1 11 6.5 27t10.5 26t-6 29q-2 -2 -8 -4t-7 -4q-23 -39 -23 -119 q0 -12 1 -25zM479 1264q4 1 7 1.5t5 1t3 0.5h1.5t0.5 1q70 90 125 166q1 3 -0.5 8.5t-3.5 13.5l-3 12q-101 -97 -135 -204zM547 817q24 38 30.5 57.5t4.5 43.5q-25 -31 -29 -43.5t-6 -57.5zM999 840q4 -4 5 -4q3 7 10.5 18t9.5 16q63 158 82 263q14 57 14 149q0 57 -47 92 q0 -21 1 -61q2 -30 2 -53v-14q-1 -28 -5 -54q-4 -58 -29 -182q-7 -32 -23 -92t-20 -78z" />
<glyph unicode="r" horiz-adv-x="1363" d="M-88 186q12 84 31 170q86 341 182 574q41 106 78 178q5 11 43 53q4 7 12.5 27.5t15.5 30.5q3 6 14.5 28.5t18.5 36.5q11 20 30 62t28 59q14 39 47 90q16 26 42 26q11 0 25 -5q10 -2 66 -29q16 16 40.5 16t57.5 -16q28 -11 44 -26.5t20 -47.5q185 54 342 54q21 0 41 -1 q-42 18 -96 24q-31 3 -59 4q-21 0 -39 -2q-19 -2 -40 -2q-27 0 -57 3q18 13 38 18t49.5 6.5t39.5 2.5q20 3 46 4q55 0 138 -15q154 -25 264 -188q36 -53 58 -100q12 -28 12 -55q0 -35 -21 -66q-20 -30 -67 -86q-70 -72 -203 -148q-238 -141 -616 -301q-20 -11 -50 -20 q-3 -2 -6 -7t-4 -6q0 -12 4.5 -18.5t16 -11.5t12.5 -6q268 -162 516 -324q9 -5 27.5 -20t29.5 -23q-15 0 -32.5 7t-29 13t-25.5 4t-25 -18q6 -7 18.5 -19.5t18.5 -19.5q5 -3 15 -14.5t15 -15.5q-5 -33 -24.5 -53.5t-50.5 -39.5q-8 -7 -21 -7q-18 0 -45 16q-19 11 -132 77 t-171 103q-64 39 -182 116.5t-136 88.5q-2 1 -18.5 9.5t-24.5 14.5q-6 -16 -16.5 -41t-11.5 -28q-12 -50 -68 -250q-12 -44 -12 -100t25 -101q-14 -2 -27 -2q-33 -1 -55 11q-31 16 -50 57q-6 18 -20 94q-15 65 -16 71q-4 13 -12 18.5t-12.5 6t-18.5 0.5q22 22 36 76 q7 37 22.5 111.5t22.5 111.5q2 6 -2 35q-4 -7 -9.5 -12t-6.5 -7q-7 -30 -30 -116.5t-33 -135.5q-2 -18 -2.5 -20t2 -22t2.5 -21q-9 -6 -16 -0.5t-9 14.5q-13 23 -4 45zM344 678q22 9 59 18q205 94 580 291q27 13 69.5 40.5t55.5 35.5q2 3 7 10t7 10q-78 -25 -180 -73 q-54 -24 -186 -78q2 12 14 20q25 17 72.5 46t68.5 44q193 110 291 197q18 14 25 20t19 22.5t18 35.5q-67 34 -134 37q-50 6 -100 6q-203 0 -399 -96q-41 -20 -60 -62q-122 -231 -219 -473q-1 -6 -3.5 -22t-4.5 -29z" />
<glyph unicode="s" horiz-adv-x="972" d="M16 666q-6 22 -6 43.5t6 42.5q14 50 39 98q189 357 508 598q87 69 166 84q44 9 62 2q148 -34 231 -166q20 -28 20 -61q0 -24 -10 -50q-38 -90 -100 -155q-24 -24 -57 -24h-9q-39 4 -63 34q-13 20 -6 51q35 102 45 144q2 5 6 36q-34 0 -72 -34q-128 -93 -252 -236 q-142 -161 -233 -323q-20 -36 -25 -48q-1 -2 -1.5 -5.5t-1 -9t-1.5 -9.5q4 -1 14.5 -3t14 -2t14.5 1q170 12 172 12h16q178 0 300 -172q23 -30 23 -66q0 -19 -7 -40q-28 -82 -51 -119q-88 -139 -271 -281q-95 -69 -188 -110q-36 -15 -77 -15q-27 1 -56 7q-73 16 -111 65 q-4 4 -5.5 11.5t-2.5 18.5t-2 17q29 1 59.5 12.5t49 22.5t49.5 33q224 150 354 340q53 84 57 133q-20 10 -47 10q-17 0 -37 -4q-124 -20 -194 -33q-26 -6 -53 -6q-103 0 -217 86q-37 26 -50 70z" />
<glyph unicode="t" horiz-adv-x="661" d="M-76 -18v7q0 21 10 57q7 26 6 46q0 14 -3 25q-3 16 6 37q11 47 32 144t39.5 170.5t40.5 139.5q19 57 65 203t84.5 255t78.5 198q16 32 36 79q-20 10 -44 10q-20 0 -44 -7q-19 -7 -35 -7q-42 0 -71 47q-7 13 -17 8.5t-28 0.5q-22 11 -47 53q-17 22 -12.5 45.5t26.5 34.5 q41 27 109 49q155 49 376 70q19 3 28.5 5t23 9.5t22.5 21.5q16 22 29 20t31 -28q1 -3 5.5 -10t6.5 -12q35 -1 103 -2t102 -2q3 0 8.5 1t7.5 1q57 0 72.5 -7.5t52.5 -52.5q5 -6 15.5 -23t20.5 -28t25 -18q7 -4 12 -13.5t12 -28t11 -28.5q-15 -3 -36.5 -6.5t-30.5 -5.5 q7 -20 13.5 -32t14.5 -32q-55 7 -114 9q-39 1 -87 1h-49h-65.5h-44.5q-54 0 -80 -51q-41 -73 -97 -237.5t-71 -200.5q-157 -398 -231 -717q-22 -81 -26 -139q-1 -15 -1 -31q0 -44 8 -92q-51 -15 -88 -15q-22 0 -39 5q-7 4 -40.5 2.5t-43.5 -0.5q-34 2 -60.5 22t-27.5 50z " />
<glyph unicode="u" horiz-adv-x="1165" d="M-39 326q21 201 107 434q43 111 157.5 341t177.5 331q35 53 86 114q6 10 19.5 17t19.5 4q19 -9 59.5 -12.5t59.5 -12.5q15 -6 39 -24t37 -25q-110 -183 -247.5 -497.5t-194.5 -512.5q-43 -158 -50 -241q11 8 34 28t36 29q2 -11 -1.5 -20t-11 -19t-9.5 -14 q-2 -3 -14.5 -19.5t-18.5 -25.5q-20 -29 -20 -41.5t16 -53.5q7 2 13.5 6t10.5 7.5t9.5 10t8 9.5t8 11.5t7.5 11.5q17 23 35 48t31.5 45t32 50.5t28.5 46.5t30.5 51.5t27 47.5t29.5 52.5t28 49.5q20 36 41 77t46.5 92l39.5 79q17 39 18 45q9 55 85 186.5t136 220.5t117 170 q20 27 60.5 73t52.5 60q21 22 34 25.5t43 -6.5q4 -3 12.5 -6.5t10.5 -5.5q2 -1 9 -9.5t11 -13.5q-42 -85 -59 -115q34 -41 38 -57q1 -4 1 -11q0 -20 -8 -63q6 5 34 30.5t44 37.5q9 -6 12 -13.5t2.5 -10.5t-5.5 -12l-5 -9q-76 -130 -199 -357.5t-160 -318.5 q-100 -264 -143 -440q-29 -110 -28 -196q0 -22 1 -42q-24 39 -24 92v15q12 137 51 272q1 6 5.5 20.5t6 23t0 22t-7.5 26.5q-3 -9 -9.5 -20t-8.5 -15q-47 -167 -62 -290q-1 -24 -1 -47q0 -84 20 -148q-6 -1 -15.5 -4.5t-17 -5.5t-12.5 -2q-14 0 -38.5 3.5l-31.5 4.5 q-6 -19 0 -32.5t18.5 -26.5t16.5 -23q-12 -4 -24 -4q-31 0 -56 26q-47 44 -47 97q0 144 4 186q9 48 28.5 135t26.5 121q9 23 17 72q-30 -35 -74 -103q-24 -42 -72.5 -118t-64.5 -103q-22 -32 -66 -76t-87 -47h-7q-40 0 -86 31q-4 2 -33 21q-5 0 -12 1t-8 1q-29 -11 -51 -11 q-23 -1 -39 11q-32 22 -48 82q-14 44 -14 115q0 28 2 61zM43 256q-3 -18 -2 -35q0 -47 18 -96q16 -21 27 -21q8 -2 29 11q-9 97 -9 125q0 32 9 129q23 178 94 407q1 6 1 20.5t1 20.5q-20 -14 -23 -29q-69 -183 -145 -532z" />
<glyph unicode="v" horiz-adv-x="1021" d="M-8 190q3 144 16 320q35 358 144 690q17 49 75 195q2 8 12 21t13 20q18 4 34 4q55 0 91 -43q-4 -17 -13 -52.5t-10 -41.5q2 0 4.5 -1.5t3.5 -1.5q11 11 17 23q4 7 8 23t8 22q31 31 49 39q22 9 56 -21q-1 -4 -2 -12t-2 -12q-43 -103 -81 -233t-57.5 -215t-52.5 -240 q-26 -134 -59 -363q0 -2 -6 -127q0 -6 3 -16t3 -12q21 3 29 14t14 31q5 13 13 41t13 41q114 344 334 764q63 120 264 481q5 9 16.5 27.5t16.5 27.5q25 2 41.5 1.5t24.5 -1.5q16 -3 55 -24q-3 -7 -8 -20.5t-8 -20.5q-24 -45 -94.5 -176t-110.5 -203q-5 -8 -29 -56q11 -3 17 0 t9.5 11.5t4.5 9.5q31 44 125.5 181.5t146.5 211.5q36 49 74 60q13 4 27 4q30 0 69 -15q13 -3 26 -8.5t30.5 -14.5t27.5 -14q-19 -38 -26 -45q-78 -83 -155 -193t-125 -191t-124 -216q-148 -272 -375 -735q-19 -36 -61 -164q-13 -40 -49 -43q-24 -8 -53.5 -3t-47.5 32 q-1 3 -24 14q-33 33 -33 37h-125q0 -1 -0.5 -2t-1.5 -3.5t-2 -4.5q-13 -41 -31 -50t-55 5q-58 21 -76 94q-18 115 -18 149z" />
<glyph unicode="w" horiz-adv-x="1247" d="M-109 168q7 59 29 149q69 292 123 502q11 45 24.5 89.5t33 99.5t30.5 83t38 98t34 87q17 37 84 154q22 29 49 -3q-3 -11 -11 -31t-12.5 -32.5t-8 -34t2.5 -35.5q39 -2 60 11.5t30 48.5q2 13 14.5 38t18.5 40q4 -13 11.5 -31.5t8.5 -26.5q-6 -60 -22 -125 q-18 -67 -158 -557q-2 -10 -8.5 -30t-8 -30t0.5 -34q10 1 18 6.5t11.5 10t9 14.5t6.5 12q49 83 108.5 173t135.5 201t114 169q13 17 29 24.5t38 10t32 6.5q8 2 15 2q27 0 50 -31q-12 -67 -41 -182q-94 -392 -125 -596q-1 -9 -6 -46t-6.5 -47t-5.5 -49t-2.5 -51.5t0.5 -54.5 q5 11 11.5 22t9 17t3.5 12q19 67 49.5 149t47.5 122.5t65.5 153t55.5 128.5q17 38 36.5 75t50.5 92t40 71q15 26 46 78t46 79q150 250 272 420q10 13 28 39.5t30 43t31.5 39t39.5 40.5q11 1 22 1q70 0 128 -50q-13 -26 -25 -47q-219 -326 -396 -693t-341 -800 q-26 -65 -35 -107q-14 -44 -19 -75v-72q-17 -14 -37 -14q-17 0 -36 10q-29 11 -29 61q0 47 2 72q1 13 6.5 36t7.5 33h-16q-9 -25 -28 -45t-36.5 -31t-44.5 -25q-7 -3 -10 -5q-28 -14 -63 -14q-29 0 -62 10q-16 3 -26 24q-13 26 -13 54q-2 36 -2 72q0 159 33 315 q39 181 82 313q0 9 -8 17q-10 1 -16 -3t-13 -16.5t-8 -13.5q-182 -284 -248 -398q-12 -20 -38.5 -62.5t-41.5 -68t-34 -63t-31 -70.5q-17 -33 -47 -20q-34 17 -58 -4q-7 -7 -39 -2q-43 2 -67 28q-20 23 -20 58q0 6 1 12z" />
<glyph unicode="x" horiz-adv-x="901" d="M-344 -94q3 12 18 53q12 25 35.5 73.5t38 78t35 70t39.5 73.5q111 207 307 467q6 7 17.5 19.5t17.5 19.5q-20 -54 -81.5 -148.5t-84.5 -146.5q7 3 14.5 5.5t10.5 4l6 3t4 3.5q20 39 71 113.5t72 116.5q17 32 72 100q37 57 37 94q1 47 1 57q2 34 1 44q0 66 -1 199t-1 200 q0 10 1 22t2.5 26.5t2.5 23.5q51 21 127 21q13 0 26 -1q1 8 5 31.5t6 34.5q12 8 14 10q25 3 42 3q25 0 33 -6q14 -11 23 -71q18 -123 23 -170q0 -3 10 -20q4 5 16.5 13t16.5 11q7 8 89.5 102t127.5 140q30 30 93.5 81.5t70.5 57.5q9 8 53 27q-1 -9 -2 -24.5t-2 -24.5 q6 -1 16 -1t15 -1q4 -1 13 -3.5t13 -3.5q-1 -3 -1 -7.5v-6.5t-1 -2q-75 -69 -78 -72q6 -26 21 -55q-3 -2 -14.5 -12t-20.5 -17l6 -10t6.5 -11t5.5 -9q-1 -2 -2 -6.5t-2 -6.5q-105 -80 -243 -241q-25 -28 -71.5 -85.5t-70.5 -84.5q-40 -40 -41 -93q0 -10 2 -20 q26 -251 39 -348q10 -100 56 -408q2 -19 34 -143q5 -22 -1 -32t-29 -17q-22 -13 -41 -16q-27 -3 -40.5 2.5t-23.5 27.5q-4 12 -15 41.5t-17 46.5q-2 5 -6.5 20.5t-7 22t-9 17t-14.5 18.5q-17 15 -25 68q-17 135 -45 329q-14 133 -20 162l-7 4q-4 0 -4 -6q0 -42 2 -65 q9 -131 17 -174q6 -64 45 -306q1 -4 8 -26l-3 -6t-3.5 -6.5t-3.5 -2.5q-40 -17 -64 -17q-12 0 -20 4q-24 12 -37 75t-19 201q-4 78 -4 147q0 52 2 98q-129 -171 -249 -370q-83 -131 -179 -303h-47q-9 1 -27.5 6.5t-25.5 7.5q-20 -20 -40 -66t-36 -67q-18 26 -16 31 q1 9 3.5 26t3 25.5t-0.5 27.5q-2 -7 -10 -23t-10 -24q-3 -4 -9.5 -19t-11.5 -18q-15 -12 -35 -8q-6 1 -10 9.5t-4 15.5z" />
<glyph unicode="y" horiz-adv-x="1124" d="M20 688q19 122 58 266q105 310 250 602q21 44 53 93q13 -4 40 -7t44.5 -10.5t28.5 -27.5q5 -7 13 -8.5t18.5 0.5t15.5 1q37 -3 28 -38q-5 -24 -34 -109q-37 -114 -107 -322t-96 -288q-7 -22 -7 -43q0 -29 12 -58q19 -45 46 -32l6 4q124 91 530 644q20 28 29 40 q31 42 90 45q25 2 72 2q9 -2 27 -12t26 -13q-9 -20 -23.5 -49.5t-19.5 -40.5q41 -19 47.5 -28t3.5 -42q-6 -32 -20 -65q-31 -71 -128 -284t-146 -330q-28 -65 -281 -682q-12 -33 -37 -123q-9 -29 -17.5 -36.5t-39.5 -10.5h-25h-9q-39 0 -54 16q-13 13 -13 42q0 11 2 23 q3 8 7 41q-15 0 -80 9q-2 11 -2 23q0 34 14 69q23 45 61 153q15 18 3 45q-5 -8 -17.5 -23t-17.5 -22q-1 3 -3 6q-1 4 -1 5q95 268 213 522q15 24 12 53q-4 -5 -13.5 -11t-11.5 -9q-6 -7 -30 -34.5t-37 -39.5q-29 -38 -54 -45q-59 -15 -129 -55q-5 -3 -12 -3q-19 0 -53 21 q6 15 20 41t19 37q-14 10 -22.5 7t-22.5 -8.5t-25 -2.5v22l-18 10.5t-17 7t-21 2.5t-20 -7q-5 -7 -20 -11q-17 -4 -32 -4q-29 0 -49 15q-25 19 -25 52q0 7 1 15zM547 322q-1 -2 0.5 -5.5t4 -9t3.5 -8.5h16q8 17 22.5 49t27.5 60t24 55q-35 -12 -51 -36.5t-25.5 -57 t-21.5 -47.5z" />
<glyph unicode="z" horiz-adv-x="1095" d="M-45 152q5 8 50 84t71 112q148 208 358 455q23 28 72.5 79t84 94t58.5 89q5 9 14 18.5t24 24t26 25.5q-45 -3 -51 -5q-236 -83 -480 -157q-14 -4 -27.5 2.5t-20.5 14t-21 25t-17 21.5q-30 34 -41 49q-17 25 -17 47q0 10 3 18q9 30 47 44q94 37 182 59q62 16 169.5 55.5 t144.5 51.5q27 9 125 52.5t155 53.5q9 2 23.5 11t21.5 12q19 5 52 12q1 -3 18 -53q12 -4 33.5 -15.5t41.5 -18t42 -3.5q16 0 30 -18q17 -17 29 -45q-1 -18 -7 -30t-24.5 -30.5l-19.5 -19.5q-54 -63 -164.5 -185t-165.5 -184q-82 -95 -232 -276t-216 -259q-10 -11 -43 -61 q66 11 88 16q156 44 332 44q30 0 61 -1q70 0 121 -51q42 -42 42 -60q0 -19 -24 -71q-12 -8 -20 -8q-28 4 -57.5 4.5t-60.5 -3t-55 -7.5t-59.5 -10t-56.5 -9q-170 -32 -264 -53q-21 -5 -44 -14t-52 -21t-44 -18q-44 -21 -87 -21q-19 0 -37 4q-62 12 -103 64q-16 18 -16 37 q0 14 8 29z" />
<glyph unicode="|" horiz-adv-x="495" d="M-172 -76q2 48 25 125q13 37 26.5 79t29.5 93.5t25 79.5q79 276 129 373q13 45 24 112.5t30 122.5q4 12 149 416q34 95 96 227q2 3 13 16.5t16 22.5q2 -1 20.5 -10t24 -13.5t14 -17.5t11.5 -30q1 -4 11 2.5t21.5 16t14.5 9.5q5 -3 14 -4t14 -5.5t9 -18.5 q-96 -270 -119 -326q-215 -629 -326 -1026q-36 -118 -67 -285q-14 -48 -26 -62t-44 -14q-14 0 -20 -2q-31 0 -31 50v32q-48 -4 -62 -2q-22 0 -22 39zM222.5 785q0.5 -2 2 -11t2.5 -18q24 59 107 297t88 274q-18 -27 -101.5 -257t-97.5 -277q-1 -6 -0.5 -8z" />
<glyph unicode="&#xa2;" horiz-adv-x="1228" d="M-14 547q0 83 71 190q73 114 240 240q137 105 281 147q23 6 36 19t25 37q18 39 52.5 111.5t45.5 94.5q24 43 29 58q35 15 70 -8q37 -20 24 -64q-34 -85 -59 -147q-4 -12 -13.5 -35.5t-13.5 -34.5q-1 -4 14 -31q8 14 21 32.5t16 23.5q6 10 34 55.5t44 69.5q3 5 14 9.5 t13 2.5q6 -5 9.5 -15t0.5 -16q-14 -25 -21.5 -72t-11.5 -61q-20 -54 27 -94q8 -8 26 -24.5t31 -30t23 -27.5q54 -65 24 -174q-9 -26 -28 -38t-43 -7q-93 17 -90 98q0 15 -3 42t-4 42q-5 -4 -12.5 -9.5t-11.5 -8.5t-10 -8.5t-8 -9t-6 -9.5t-2.5 -10.5t1.5 -12.5q0 -21 -6 -24 q-23 -17 -33 -42t-15.5 -55.5t-14.5 -48.5q-10 -17 -18.5 -39t-12 -34t-12 -43.5t-9.5 -36.5q-2 -2 -6 -29q35 -8 107 25q74 32 157 -19q7 -5 15.5 -20t11.5 -19q-27 -35 -82 -53q-144 -54 -215 -78q-67 -15 -84 -80q-6 -20 -23 -76t-25 -84.5t-18 -73t-14 -81.5 q0 -4 -6 -16q-42 -28 -96 -4q-10 3 -17.5 13t-7.5 21q-3 13 2 62q53 234 56 250q-7 5 -18 6t-18 0t-24 -5t-22 -5q-12 -19 -21 -38.5t-16.5 -43.5t-11 -37t-10.5 -43.5t-9 -38.5q-5 -2 -10.5 -6t-7.5 -4q-28 4 -49 4q-2 39 16 110t20 101q-10 3 -36.5 10.5t-40.5 11.5 q-60 18 -95 35q-119 53 -116 203zM223 418q71 -9 107 10q9 25 44.5 116t56 151.5t36.5 121.5q-155 -116 -234 -282q-27 -71 -10 -117zM480.5 476q1.5 -10 0.5 -17q34 9 41 12.5t13 15.5q52 125 55 131q49 115 67 148q1 -8 6 -20.5t7 -24.5q42 106 51 129q5 13 17 38.5 t19.5 46t10.5 40.5q-44 -8 -84 -19q-33 -78 -101.5 -234.5t-101.5 -234.5q-2 -1 -0.5 -11z" />
<glyph unicode="&#xa3;" horiz-adv-x="1257" d="M-57 147q11 9 26 14.5t27 7.5t32 4.5t31 4.5q5 2 16.5 6.5t16.5 7t10.5 7t6.5 10.5q9 21 35 75.5t41 93.5t22 77q0 1 -0.5 2t-1.5 4.5t-2 7.5q-80 33 -150 113q26 23 59 31.5t214 39.5q18 32 51 103q7 9 9 14t-1 12t-16 13q-7 4 2 32q9 15 29.5 57t35.5 64 q72 122 172 273q83 124 215 229q42 30 66 41q21 13 63 18q54 3 114 -23.5t83 -64.5q49 -93 39 -172q-1 -14 0.5 -39.5t-0.5 -48.5t-12 -45q-10 -19 -16.5 -61.5t-16.5 -61.5q-7 -14 -17 -39t-17.5 -41.5t-24 -37.5t-40.5 -37q-42 0 -71 2q9 64 35 209q1 4 7.5 35t8 38 t6.5 34t5.5 37.5t3 33.5t2 37t-2 33t-4.5 36q-17 55 -45 88q-14 -2 -27.5 -8t-21 -10.5t-20 -15t-17.5 -13.5q-7 -6 -10 -17.5t0 -15.5q10 -10 11.5 -21t-1.5 -17t-12 -18.5t-12 -16.5q-170 -224 -306 -588q0 -11 2 -27q20 -3 62.5 -7t62.5 -7q23 -2 63.5 -7t59.5 -7 q145 -10 205 -86q3 -3 5 -6t4 -7l3 -6v-16q-67 -2 -76.5 0.5t-76 -2t-76 -4t-76 -5t-75.5 -6.5t-75 -7t-75 -7q-32 -44 -52 -104.5t-22 -116.5q8 0 25.5 -1t25.5 -1q47 2 142.5 8t142.5 8q64 3 154 -12q163 -23 180 -139q-21 5 -42 8.5t-45 4.5t-40.5 1.5t-45 -1t-40.5 -2.5 t-45 -3.5t-41 -3.5q-170 -15 -346 -39q-12 -1 -39 -7.5t-43 -9.5q-1 -13 -2.5 -35t-2.5 -39.5t-1 -33.5q-92 -19 -133 -2t-64 86q-16 1 -104 6v12q6 1 26 8t31 9q0 2 -2 6.5t-2 5.5h-96q-37 2 -54 14t-32 47zM403 119q108 6 302 20t278 19l1 3q1 3 1 7q-6 1 -19.5 3t-19.5 3 q-204 9 -524 -41q-2 0 -8 -6t-11 -8z" />
<glyph unicode="&#xa4;" horiz-adv-x="1232" d="M8 233q22 25 66 66.5t53 50.5q10 11 28 32.5t25 29.5q-5 9 -26 45.5t-29 54.5q-28 77 20 195q42 103 113 200q3 3 31 41q-8 13 -22 34.5t-25.5 40t-20.5 34.5q-31 53 -47 100q-12 25 16 39q6 3 17.5 2.5t15.5 -4.5q24 -15 51 -49q25 -30 95 -125q78 32 84 35 q-4 -14 -19.5 -24t-26.5 -20t-8 -28q7 -5 14.5 -5t12.5 2.5t13.5 7.5t11.5 7q8 4 35.5 17t40.5 18.5t35.5 11t43.5 5.5q12 0 23.5 1.5t27 7t21.5 7.5t27 11t22 9q7 2 13 8t13.5 16.5t10.5 14.5q92 112 113 133q6 6 21 23.5t28 31t20 17.5q16 7 30.5 0.5t38.5 -25.5t46 -30 q-5 -6 -29.5 -41.5t-46.5 -50.5q-58 -41 -113 -146q4 -4 10.5 -12.5t13 -14.5t13.5 -10q49 -27 71.5 -74t19 -94t-26.5 -88q-20 -42 -103 -151q-8 -12 -18.5 -23.5t-25.5 -27t-23 -23.5q14 -14 24.5 -33.5t15 -32.5t12.5 -40t11 -35q7 -26 47 -148q-47 -26 -74.5 -23 t-52.5 38q-15 22 -37 64.5t-32 58.5q-5 12 -15.5 32.5t-15.5 32.5q-11 -5 -55 -22q-63 -30 -88 -39q-151 -61 -275 4q-21 -13 -40 -32t-27.5 -31t-26.5 -38q-11 -16 -17 -24.5t-17.5 -18.5t-26.5 -16q-9 -4 -18.5 -11.5t-22 -20t-21.5 -19.5q-15 0 -33 10q-50 24 -10 61z M360 483q2 -1 4 -4h3q118 28 229 117q2 2 2 10q36 3 64.5 20.5t64.5 49.5q2 6 2 16q56 26 74 47t28 70q-9 -10 -52 -46.5t-56 -62.5q-13 -7 -70 -47q49 49 62 64q84 77 116 147q4 9 13 58q-38 -3 -49 -9q-69 -21 -174 -98q-148 -111 -226 -233q-39 -63 -35 -99z" />
<glyph unicode="&#xa5;" horiz-adv-x="1267" d="M29 879q10 60 55 213q70 269 182 454q32 48 41 58q11 15 32.5 16t43.5 -12q81 -64 96 -76q3 -5 4.5 -10.5t2.5 -10t0.5 -11.5t-0.5 -11t-2 -12.5t-2.5 -11.5t-4 -12.5t-4 -11.5t-4 -12t-4.5 -12q-104 -254 -123 -297q-11 -34 -39 -108q-2 -5 -2 -10.5t1 -14.5t1 -18 q10 6 22 12.5t18.5 10t10.5 7.5q181 166 465 371q2 2 11 9t13 11t9 9.5t6 9.5q9 30 32 56.5t61.5 58t52.5 45.5q92 9 133 -37q-14 -71 -46 -152t-58 -132t-75 -142q-25 -43 -50.5 -92.5t-55.5 -113t-45 -93.5q-2 -5 -9 -30t-14 -40q20 -9 42.5 -10t47 1t37.5 1 q151 -7 197 -92q-8 -2 -27 -10.5t-30 -10.5q-42 -6 -123.5 -16t-120.5 -16q-70 -10 -85 -23t-30 -72q7 -5 14 -8.5t16 -5t14.5 -2t16.5 0.5t15 1.5t16 3t15 2.5q112 11 194 -61q8 -5 11 -25q-31 -3 -96.5 -10t-100.5 -10q-4 -1 -15.5 -2t-15.5 -2q-103 -13 -124 -24.5 t-35 -50.5q-1 -4 -11 -32q-12 -37 -29.5 -82t-28.5 -72t-36.5 -85.5t-32.5 -75.5q-2 -7 -28 -41q-8 1 -24.5 2t-25.5 2q-19 9 -63 20q-3 40 26.5 107.5t28.5 99.5q-18 7 -22 11q-42 3 -54 10t-6 28q1 9 21 72q6 8 6 29q-14 11 -28 12.5t-32 -3.5t-24 -5q-100 -9 -164 49 q33 21 43 23q96 28 186 49q49 13 65.5 21.5t23.5 26t8 60.5q-58 2 -137 -16q-91 -21 -175 37q-31 19 -24.5 42.5t45.5 32.5q93 26 250 56q16 2 55 9t59 9q39 48 111.5 207.5t73.5 204.5q-72 -58 -74 -60l-88 -88t-103.5 -104.5t-86.5 -91.5q-32 -38 -64 -46.5t-96 3.5 q-20 6 -57.5 19.5t-51.5 17.5q-48 42 -24 125z" />
<glyph unicode="&#xad;" d="M76 606q3 21 14.5 40.5t22.5 25.5q5 2 18.5 8t20 9t19 7.5t21 6.5t20 4t21.5 2q169 11 388 4q89 0 165 -82q-21 -49 -44 -70t-54 -24q-143 -3 -520 -29q-31 0 -49 8q-20 6 -34 35.5t-9 54.5z" />
<glyph unicode="&#xb1;" horiz-adv-x="1026" d="M14 141q3 21 14.5 40.5t22.5 25.5q4 2 18.5 8.5t20.5 8.5t19 7t21.5 7t20 4t21.5 2q168 11 387 4q90 0 166 -82q-21 -49 -44 -70t-54 -24q-144 -3 -521 -29q-31 0 -49 8q-20 6 -34 35.5t-9 54.5zM57 621q-16 47 31 61q134 31 180 37q22 6 123 16q10 24 32 103t46 114 q10 3 18.5 4.5t19 -1.5l14 -4t16.5 -8t14 -7q42 -20 53.5 -43t3.5 -70q-8 -30 -16 -78q14 -5 32 -7.5t27 -3t32.5 0t27.5 0.5q64 -2 99 -19t79 -69q-2 -4 -4 -7.5t-5.5 -6.5t-5.5 -5t-6.5 -4t-6.5 -3t-7.5 -3t-7 -2t-8 -2t-7.5 -2q-156 -22 -213 -28q-9 -1 -30 -5.5 t-33 -5.5q-29 -79 -29 -198q-51 -15 -114 12q-35 19 -41 66q-10 90 -11 104q-10 0 -25 2t-22 2q-61 -8 -96 -10q-66 0 -111 37q-7 8 -27 20t-22 13z" />
<glyph unicode="&#xd7;" horiz-adv-x="1044" d="M63 379q14 35 31 57q47 61 107 127q9 12 61 72q-77 125 -135 227q-3 2 2 12q22 6 41 24.5t29 33.5t26.5 25t32.5 -1q22 -11 82.5 -91t79.5 -93q34 27 92.5 85t89.5 83q9 5 20.5 2t17 -3.5t14 -8.5t12.5 -12t12 -13.5t12 -13.5q46 28 64 37q34 24 46 22.5t52 -35.5 q-1 -12 -6.5 -20.5t-18.5 -19t-16 -13.5q-37 -35 -109 -101.5t-106 -98.5q-10 -9 -27 -30t-22 -26q119 -177 241 -291q-4 -5 -8 -11t-6.5 -9.5t-5.5 -5.5q-93 -21 -156 12q-102 59 -170 129q-1 1 -36 31q-24 -17 -58 -51.5t-43 -42.5q-21 -27 -49 -52q-31 -31 -59 -14 q-5 3 -10 10t-11 19t-10 18q-3 -3 -13.5 -8.5t-15.5 -9.5q-25 -25 -51 -13q-13 9 -20.5 28t-2.5 34z" />
<glyph unicode="&#xf7;" horiz-adv-x="1011" d="M61 684q50 22 66 25q278 38 502 2q70 -9 122.5 -27.5t94.5 -60.5q-7 -12 -21.5 -32t-19.5 -30q-282 -6 -561 -6q-50 0 -113 18q-79 27 -70 111zM286.5 354.5q-6.5 18.5 0.5 44.5q10 42 49 45q7 1 20 2.5t19 2.5q43 9 69 -27q13 -20 11.5 -45t-18 -45.5t-37 -34t-45 -11 t-42.5 24.5q-20 25 -26.5 43.5zM446 915q6 19 20.5 26.5t43.5 4.5q47 -7 84 -41q27 -21 6 -55q-27 -36 -68.5 -41t-74.5 27q-33 30 -11 79z" />
<glyph unicode="&#x2000;" horiz-adv-x="907" />
<glyph unicode="&#x2001;" horiz-adv-x="1815" />
<glyph unicode="&#x2002;" horiz-adv-x="907" />
<glyph unicode="&#x2003;" horiz-adv-x="1815" />
<glyph unicode="&#x2004;" horiz-adv-x="605" />
<glyph unicode="&#x2005;" horiz-adv-x="453" />
<glyph unicode="&#x2006;" horiz-adv-x="302" />
<glyph unicode="&#x2007;" horiz-adv-x="302" />
<glyph unicode="&#x2008;" horiz-adv-x="226" />
<glyph unicode="&#x2009;" horiz-adv-x="363" />
<glyph unicode="&#x200a;" horiz-adv-x="100" />
<glyph unicode="&#x2010;" d="M76 606q3 21 14.5 40.5t22.5 25.5q5 2 18.5 8t20 9t19 7.5t21 6.5t20 4t21.5 2q169 11 388 4q89 0 165 -82q-21 -49 -44 -70t-54 -24q-143 -3 -520 -29q-31 0 -49 8q-20 6 -34 35.5t-9 54.5z" />
<glyph unicode="&#x2011;" d="M76 606q3 21 14.5 40.5t22.5 25.5q5 2 18.5 8t20 9t19 7.5t21 6.5t20 4t21.5 2q169 11 388 4q89 0 165 -82q-21 -49 -44 -70t-54 -24q-143 -3 -520 -29q-31 0 -49 8q-20 6 -34 35.5t-9 54.5z" />
<glyph unicode="&#x2012;" d="M76 606q3 21 14.5 40.5t22.5 25.5q5 2 18.5 8t20 9t19 7.5t21 6.5t20 4t21.5 2q169 11 388 4q89 0 165 -82q-21 -49 -44 -70t-54 -24q-143 -3 -520 -29q-31 0 -49 8q-20 6 -34 35.5t-9 54.5z" />
<glyph unicode="&#x2013;" horiz-adv-x="1288" d="M76 606q4 21 20.5 40.5t32.5 25.5q7 2 26.5 8t29 9t27.5 7.5t30 6.5t29 4t31 2q243 11 558 4q129 0 238 -82q-30 -49 -63 -70t-78 -24q-206 -3 -749 -29q-44 0 -70 8q-29 6 -49 35.5t-13 54.5z" />
<glyph unicode="&#x2014;" horiz-adv-x="2312" d="M78 606q8 21 41.5 40.5t64.5 25.5q15 2 53.5 8t57.5 9t55 7.5t60.5 6.5t57.5 4t62 2q486 11 1117 4q256 0 475 -82q-60 -49 -126.5 -70t-155.5 -24q-412 -3 -1497 -29q-90 0 -141 8q-58 6 -98.5 35.5t-25.5 54.5z" />
<glyph unicode="&#x2018;" horiz-adv-x="616" d="M244 1077q26 156 102 275q33 52 68.5 54.5t95.5 -42.5q-73 -99 -109 -227q-6 -23 -26 -121q-7 -34 -21.5 -41.5t-46.5 4.5q-45 15 -57.5 34.5t-5.5 63.5z" />
<glyph unicode="&#x2019;" horiz-adv-x="616" d="M233 1022q73 99 109 227q11 43 27 121q8 34 21.5 41.5t45.5 -4.5q45 -15 58 -34.5t6 -63.5q-26 -154 -103 -275q-33 -52 -68.5 -54.5t-95.5 42.5z" />
<glyph unicode="&#x201c;" horiz-adv-x="854" d="M244 1077q26 156 102 275q33 52 68.5 54.5t95.5 -42.5q-73 -99 -109 -227q-6 -23 -26 -121q-7 -34 -21.5 -41.5t-46.5 4.5q-45 15 -57.5 34.5t-5.5 63.5zM492 1077q26 156 102 275q33 52 68.5 54.5t95.5 -42.5q-73 -99 -109 -227q-6 -23 -26 -121q-7 -34 -21.5 -41.5 t-46.5 4.5q-45 15 -57.5 34.5t-5.5 63.5z" />
<glyph unicode="&#x201d;" horiz-adv-x="854" d="M233 1022q73 99 109 227q11 43 27 121q8 34 21.5 41.5t45.5 -4.5q45 -15 58 -34.5t6 -63.5q-26 -154 -103 -275q-33 -52 -68.5 -54.5t-95.5 42.5zM481 1022q73 99 109 227q6 23 26 121q7 34 21.5 41.5t46.5 -4.5q45 -15 58 -34.5t6 -63.5q-26 -154 -103 -275 q-33 -52 -68.5 -54.5t-95.5 42.5z" />
<glyph unicode="&#x202f;" horiz-adv-x="363" />
<glyph unicode="&#x205f;" horiz-adv-x="453" />
<glyph unicode="&#x20ac;" horiz-adv-x="1339" d="M-41 936q22 16 49 23.5t61.5 12.5t51.5 9q29 9 86 19.5t78 15.5q51 100 88 164q83 164 274 297q83 53 209 77q128 22 231 -41q91 -52 140 -96q103 -89 57 -217q-33 -84 -94 -164q-41 -53 -81 -57t-108 37q3 19 13 43q6 14 30.5 70.5t36.5 87.5q31 95 -8 169 q-21 39 -46.5 52t-70.5 6q-105 -36 -147 -58q-182 -108 -295 -317v-20q6 0 20.5 -2.5t20.5 -2.5q112 17 170 23q70 9 110 -13.5t70 -92.5q-33 -13 -68.5 -21t-91.5 -16t-73 -11q-106 -19 -238 -36q-28 -45 -34 -66.5t-9 -81.5q12 -5 26 -6t34 0.5t28 1.5q43 2 133 10 q103 3 164 -110q-163 -18 -211 -19q-147 -8 -211 -24q-31 -182 25 -310q19 -37 39 -46.5t63 -2.5q97 17 187 84q210 159 323 359q11 21 24.5 32.5t37.5 10.5q65 -4 94 -37q14 -8 8 -31q0 -6 -2.5 -13t-6.5 -15.5t-5 -10.5q-4 -9 -12.5 -25.5t-12.5 -24.5t-10 -25t-4.5 -27 t2.5 -29q3 -16 -10 -39q-49 -82 -75.5 -123t-76.5 -102.5t-102 -104.5q-8 -5 -32 -22.5t-38 -24.5q-93 -51 -172 -35q-16 3 -50.5 9t-54 10t-47 12.5t-49.5 20.5q-5 3 -17 10t-17 11t-10.5 13t-6.5 21q7 -3 38.5 -18.5t49.5 -20.5q47 -19 80.5 -9t73.5 54q-95 -13 -248 23 q3 -8 4.5 -14t2 -11.5t1.5 -7.5q-3 2 -9 2.5t-9 3.5q-107 88 -164 188.5t-49 223.5q0 3 -2 15.5t-2 21.5q-25 19 -105 73q71 48 193 60q4 23 14.5 69t15.5 72q-82 4 -110 4q-25 2 -80 2q-73 3 -82 78zM153.5 458q6.5 -57 39.5 -102q-9 161 -13 201q0 1 -1 1.5t-3.5 1.5 t-5 1.5t-6 2t-6.5 3.5q-11 -52 -4.5 -109z" />
<glyph unicode="&#x2122;" horiz-adv-x="778" d="M223 1057q0 20 2 28q0 9 2 13q1 6 5 26t4 31q1 11 4 22.5t7.5 24.5t6.5 21q6 19 18.5 54.5t18.5 53.5q6 23 25 63t24 54v4q-12 2 -29 -2q-29 -3 -39 23q8 6 25.5 10.5t24.5 7.5q-8 2 -21 -1t-20 -1q2 3 4.5 4.5t5.5 2t4 1.5q34 12 78 19q27 4 121 4q10 0 30 -4l-2 -5 q-60 0 -73 -2h-11q-12 0 -35 -3t-28 -3q0 -6 6 -6q3 0 38 3t52 3h49q23 0 29 -20q0 -1 1 -3t1 -3h-31q-42 -10 -82 -15q-14 -3 -20 -14q-40 -82 -56 -125q-9 -22 -75 -229q-13 -42 -19 -41q-3 0 -3 25q-1 10 -1 12q0 1 -1 0q-1 0 -1 2q3 8 8 32q0 5 -2 11q-3 -9 -8 -29 q-4 -8 2 -14q-4 0 -6 -5q-5 -34 -4 -40q-7 -13 -19 -7q-10 3 -10 17zM354 1382q2 5 7.5 14.5t7.5 14.5q0 2 -2 4q-13 -16 -13 -33zM356 1092q3 24 6 45q12 63 48 147q7 20 22.5 55t20.5 47q9 18 18 39l3 7l5 10q4 12 10 12q17 0 25 -6q2 0 6 -8h8q5 0 9 -4v-5.5t-2 -5.5 l-3 -6q-6 -15 -6 -35v-104q-3 -25 6 -53q1 2 9 10q50 77 110 143q27 31 64 68q6 4 16 14q4 -1 7 -3.5t5.5 -6.5t4.5 -6q2 1 5 3t5 3q9 0 12 -10q0 -1 -1 -4.5t-1 -5.5q-8 -20 -25.5 -59t-25.5 -58q-39 -98 -58 -176q0 -3 -2 -10.5t-2 -10.5v-22q-8 -4 -16 -4q-25 0 -25 20 q0 23 4 35q11 71 44 156l6 18v4q-4 4 -4 -2q-38 -43 -72 -90q-30 -44 -43 -70l-12 -18q-6 0 -11 7t-10 7q1 -3 2 -8t2 -8q-7 -2 -18 6q-10 13 -13 29q-4 32 -4 51q-1 5 -1 13.5t-1 15.5t-4 12q0 2 1 6t1 6v23q-4 -8 -10 -27t-10 -27q-15 -45 -19 -53q-3 -9 -9 -27.5 t-9 -27.5q-1 -3 -7 -24t-11 -32q-6 0 -9 3q-12 2 -10 14q3 15 6 33q1 3 2 8t2 8h-2l-4 -4q-1 -4 -3 -11.5t-3 -11.5q-2 -7 -12 -47q-8 1 -11 2t-4.5 3.5t-1.5 7.5zM503 1222.5q2 -25.5 7 -34.5q6 6 6 18q-1 4 -2 12t-2 11q-4 26 -8 37q-3 -18 -1 -43.5z" />
<glyph unicode="&#x25fc;" horiz-adv-x="1740" d="M0 0v1741h1741v-1741h-1741z" />
</font>
</defs>
</svg>
